<?xml version="1.0" encoding="UTF-8" standalone="no"?>
<svg
   xmlns:dc="http://purl.org/dc/elements/1.1/"
   xmlns:cc="http://creativecommons.org/ns#"
   xmlns:rdf="http://www.w3.org/1999/02/22-rdf-syntax-ns#"
   xmlns:svg="http://www.w3.org/2000/svg"
   xmlns="http://www.w3.org/2000/svg"
   xmlns:sodipodi="http://sodipodi.sourceforge.net/DTD/sodipodi-0.dtd"
   xmlns:inkscape="http://www.inkscape.org/namespaces/inkscape"
   width="228.54965mm"
   height="58.748428mm"
   viewBox="0 0 228.54965 58.748428"
   version="1.1"
   id="svg8"
   sodipodi:docname="Local Optima 1 White.svg"
   inkscape:version="0.92.4 5da689c313, 2019-01-14">
  <sodipodi:namedview
     pagecolor="#ffffff"
     bordercolor="#666666"
     borderopacity="1"
     objecttolerance="10"
     gridtolerance="10"
     guidetolerance="10"
     inkscape:pageopacity="0"
     inkscape:pageshadow="2"
     inkscape:window-width="1250"
     inkscape:window-height="980"
     id="namedview49"
     showgrid="false"
     inkscape:zoom="0.81962496"
     inkscape:cx="260.14727"
     inkscape:cy="10.528582"
     inkscape:window-x="1290"
     inkscape:window-y="50"
     inkscape:window-maximized="0"
     inkscape:current-layer="svg8" />
  <defs
     id="defs2" />
  <metadata
     id="metadata5">
    <rdf:RDF>
      <cc:Work
         rdf:about="">
        <dc:format>image/svg+xml</dc:format>
        <dc:type
           rdf:resource="http://purl.org/dc/dcmitype/StillImage" />
        <dc:title></dc:title>
      </cc:Work>
    </rdf:RDF>
  </metadata>
  <g
     transform="matrix(0.50923652,0,0,0.50923652,-3.056848,-46.46353)"
     id="g4601"
     inkscape:export-xdpi="76.848938"
     inkscape:export-ydpi="76.848938">
    <path
       style="fill:#567898;fill-opacity:1;stroke-width:0.26458332"
       id="path4533"
       d="M 69.609446,91.241646 133.21608,201.41157 H 6.0028064 Z" />
    <path
       style="fill:#e1ffff;fill-opacity:1;stroke-width:0.26458332"
       d="m 69.609618,91.241558 -25.978776,44.996732 3.335198,5.77691 2.660819,-4.6085 5.19503,8.99842 9.430433,-16.33389 4.894791,8.47803 6.100403,-10.56679 7.301365,12.64625 1.637109,-2.836 7.37371,12.77131 6.150012,-10.65154 z"
       id="path4535" />
    <path
       style="fill:#fffedf;fill-opacity:0.26130652;stroke:none;stroke-width:0.26458332px;stroke-linecap:butt;stroke-linejoin:miter;stroke-opacity:1"
       d="m 69.609618,91.241558 -0.109037,0.189134 37.475739,109.980888 h 26.23975 z"
       id="path4584" />
  </g>
  <g
     id="text4605"
     style="font-style:normal;font-weight:normal;font-size:12.40610313px;line-height:1.25;font-family:sans-serif;letter-spacing:0px;word-spacing:0px;fill:#ffffff;fill-opacity:1;stroke:none;stroke-width:0.31015259"
     aria-label="Local Optima">
    <path
       id="path4952"
       style="font-style:normal;font-variant:normal;font-weight:normal;font-stretch:normal;font-size:29.77464867px;line-height:1.25;font-family:'Times New Roman';-inkscape-font-specification:'Times New Roman, ';text-align:center;letter-spacing:-0.31015259px;word-spacing:0px;text-anchor:middle;stroke-width:0.31015259;fill:#ffffff;fill-opacity:1"
       d="m 84.614634,35.156295 0.479768,0.101769 -1.686455,5.350132 H 68.142624 v -0.537921 h 0.741459 q 1.250302,0 1.788223,-0.81415 0.305307,-0.465229 0.305307,-2.151684 V 24.383339 q 0,-1.846377 -0.407076,-2.311606 -0.566997,-0.63969 -1.686454,-0.63969 h -0.741459 v -0.537921 h 8.926579 v 0.537921 q -1.570147,-0.01454 -2.209837,0.290768 -0.625151,0.305307 -0.857766,0.770536 -0.232614,0.465228 -0.232614,2.224375 v 12.386719 q 0,1.206688 0.232614,1.657378 0.174461,0.305307 0.537921,0.450691 0.36346,0.145384 2.267991,0.145384 h 1.439302 q 2.267991,0 3.18391,-0.334384 0.915919,-0.334383 1.671916,-1.17761 0.755997,-0.857766 1.511994,-2.689605 z" />
    <path
       id="path4954"
       style="font-style:normal;font-variant:normal;font-weight:normal;font-stretch:normal;font-size:29.77464867px;line-height:1.25;font-family:'Times New Roman';-inkscape-font-specification:'Times New Roman, ';text-align:center;letter-spacing:-0.31015259px;word-spacing:0px;text-anchor:middle;stroke-width:0.31015259;fill:#ffffff;fill-opacity:1"
       d="m 92.882139,26.898483 q 3.023988,0 4.855827,2.297067 1.555609,1.962685 1.555609,4.506905 0,1.788224 -0.857766,3.620062 -0.857766,1.831839 -2.369759,2.762297 -1.497456,0.930458 -3.343833,0.930458 -3.009449,0 -4.783135,-2.398837 -1.497455,-2.020838 -1.497455,-4.535982 0,-1.831838 0.901381,-3.6346 0.915919,-1.817301 2.398836,-2.675066 1.482918,-0.872304 3.140295,-0.872304 z m -0.45069,0.944996 q -0.770535,0 -1.555609,0.465229 -0.770536,0.45069 -1.250303,1.599224 -0.479767,1.148534 -0.479767,2.951296 0,2.90768 1.148534,5.015749 1.163072,2.108068 3.053064,2.108068 1.410225,0 2.326145,-1.163072 0.915919,-1.163072 0.915919,-3.998061 0,-3.54737 -1.526532,-5.582747 -1.032227,-1.395686 -2.631451,-1.395686 z" />
    <path
       id="path4956"
       style="font-style:normal;font-variant:normal;font-weight:normal;font-stretch:normal;font-size:29.77464867px;line-height:1.25;font-family:'Times New Roman';-inkscape-font-specification:'Times New Roman, ';text-align:center;letter-spacing:-0.31015259px;word-spacing:0px;text-anchor:middle;stroke-width:0.31015259;fill:#ffffff;fill-opacity:1"
       d="m 112.25698,35.548832 q -0.53792,2.631451 -2.10807,4.056214 -1.57014,1.410226 -3.47467,1.410226 -2.268,0 -3.95445,-1.904531 -1.68646,-1.904531 -1.68646,-5.146595 0,-3.140295 1.86092,-5.102979 1.87545,-1.962684 4.49237,-1.962684 1.96268,0 3.22752,1.046765 1.26484,1.032226 1.26484,2.151683 0,0.552459 -0.36346,0.901381 -0.34892,0.334383 -0.98861,0.334383 -0.85776,0 -1.29392,-0.552459 -0.24715,-0.305306 -0.33438,-1.163072 -0.0727,-0.857766 -0.58154,-1.308456 -0.50884,-0.436152 -1.41022,-0.436152 -1.45384,0 -2.34068,1.075841 -1.17761,1.424764 -1.17761,3.765447 0,2.384298 1.16307,4.216136 1.17761,1.817301 3.16937,1.817301 1.42476,0 2.55876,-0.974073 0.79961,-0.668767 1.55561,-2.427914 z" />
    <path
       id="path4958"
       style="font-style:normal;font-variant:normal;font-weight:normal;font-stretch:normal;font-size:29.77464867px;line-height:1.25;font-family:'Times New Roman';-inkscape-font-specification:'Times New Roman, ';text-align:center;letter-spacing:-0.31015259px;word-spacing:0px;text-anchor:middle;stroke-width:0.31015259;fill:#ffffff;fill-opacity:1"
       d="m 121.38226,38.689127 q -2.04992,1.584686 -2.5733,1.831839 -0.78508,0.36346 -1.67192,0.36346 -1.38115,0 -2.28253,-0.944996 -0.88684,-0.944996 -0.88684,-2.486067 0,-0.974073 0.43615,-1.686455 0.59608,-0.988611 2.06446,-1.860915 1.48291,-0.872305 4.91398,-2.122607 v -0.523383 q 0,-1.991761 -0.63969,-2.733219 -0.62516,-0.741459 -1.83184,-0.741459 -0.91592,0 -1.45384,0.494306 -0.55246,0.494305 -0.55246,1.133995 l 0.0291,0.843228 q 0,0.668766 -0.34892,1.032226 -0.33438,0.36346 -0.88684,0.36346 -0.53792,0 -0.88684,-0.377998 -0.33439,-0.377999 -0.33439,-1.032227 0,-1.250302 1.27938,-2.297067 1.27938,-1.046765 3.59099,-1.046765 1.77368,0 2.90768,0.596074 0.85777,0.450691 1.26484,1.410225 0.26169,0.625151 0.26169,2.558759 v 4.521443 q 0,1.904531 0.0727,2.340683 0.0727,0.421614 0.23262,0.566998 0.17446,0.145384 0.39254,0.145384 0.23261,0 0.40707,-0.101769 0.30531,-0.188999 1.17761,-1.061303 v 0.81415 q -1.6283,2.180761 -3.11122,2.180761 -0.71238,0 -1.13399,-0.494306 -0.42162,-0.494306 -0.43615,-1.686455 z m 0,-0.944996 v -5.073903 q -2.1953,0.872305 -2.83499,1.235765 -1.14854,0.639689 -1.64284,1.337533 -0.49431,0.697843 -0.49431,1.526532 0,1.046765 0.62515,1.744608 0.62515,0.683305 1.43931,0.683305 1.10491,0 2.90768,-1.45384 z" />
    <path
       id="path4960"
       style="font-style:normal;font-variant:normal;font-weight:normal;font-stretch:normal;font-size:29.77464867px;line-height:1.25;font-family:'Times New Roman';-inkscape-font-specification:'Times New Roman, ';text-align:center;letter-spacing:-0.31015259px;word-spacing:0px;text-anchor:middle;stroke-width:0.31015259;fill:#ffffff;fill-opacity:1"
       d="m 131.30714,19.934588 v 17.664159 q 0,1.250303 0.17446,1.657378 0.189,0.407075 0.567,0.625151 0.378,0.203538 1.41022,0.203538 v 0.523382 h -6.52774 v -0.523382 q 0.91592,0 1.2503,-0.188999 0.33438,-0.189 0.52338,-0.625152 0.189,-0.436152 0.189,-1.671916 V 25.502796 q 0,-2.253453 -0.10177,-2.762297 -0.10176,-0.523382 -0.33438,-0.712381 -0.21807,-0.189 -0.567,-0.189 -0.37799,0 -0.95953,0.232615 l -0.24715,-0.508844 3.96898,-1.628301 z" />
    <path
       id="path4962"
       style="font-style:normal;font-variant:normal;font-weight:normal;font-stretch:normal;font-size:29.77464867px;line-height:1.25;font-family:'Times New Roman';-inkscape-font-specification:'Times New Roman, ';text-align:center;letter-spacing:-0.31015259px;word-spacing:0px;text-anchor:middle;stroke-width:0.31015259;fill:#ffffff;fill-opacity:1"
       d="m 151.76752,20.443432 q 3.83813,0 6.64405,2.922219 2.82045,2.90768 2.82045,7.269201 0,4.492366 -2.83499,7.458201 -2.83499,2.965834 -6.86213,2.965834 -4.07075,0 -6.84759,-2.893142 -2.76229,-2.893143 -2.76229,-7.487278 0,-4.695904 3.19845,-7.661738 2.77683,-2.573297 6.64405,-2.573297 z m -0.27623,1.061303 q -2.64599,0 -4.24522,1.962685 -1.99176,2.442451 -1.99176,7.152894 0,4.826749 2.06446,7.429123 1.58468,1.977223 4.18706,1.977223 2.77683,0 4.57959,-2.166222 1.8173,-2.166222 1.8173,-6.833049 0,-5.059364 -1.99176,-7.545431 -1.59922,-1.977223 -4.41967,-1.977223 z" />
    <path
       id="path4964"
       style="font-style:normal;font-variant:normal;font-weight:normal;font-stretch:normal;font-size:29.77464867px;line-height:1.25;font-family:'Times New Roman';-inkscape-font-specification:'Times New Roman, ';text-align:center;letter-spacing:-0.31015259px;word-spacing:0px;text-anchor:middle;stroke-width:0.31015259;fill:#ffffff;fill-opacity:1"
       d="m 162.05586,28.614014 4.09983,-1.657378 h 0.55246 v 3.111218 q 1.03222,-1.759146 2.06445,-2.45699 1.04676,-0.712381 2.1953,-0.712381 2.0063,0 3.34383,1.570147 1.64284,1.919069 1.64284,5.001211 0,3.445601 -1.97722,5.699053 -1.6283,1.846378 -4.09983,1.846378 -1.07584,0 -1.86092,-0.305307 -0.58153,-0.218076 -1.30845,-0.872304 v 4.056214 q 0,1.36661 0.15992,1.73007 0.17446,0.377999 0.58153,0.596075 0.42162,0.218076 1.512,0.218076 v 0.537921 h -6.97844 v -0.537921 h 0.36346 q 0.79962,0.01454 1.36661,-0.305307 0.27623,-0.159922 0.42162,-0.523382 0.15992,-0.348922 0.15992,-1.802762 V 31.216388 q 0,-1.293918 -0.11631,-1.642839 -0.1163,-0.348922 -0.378,-0.523383 -0.24715,-0.174461 -0.6833,-0.174461 -0.34892,0 -0.88684,0.203538 z m 4.65229,2.311606 v 4.972134 q 0,1.613762 0.13084,2.122607 0.20354,0.843227 0.98861,1.482917 0.79961,0.639689 2.0063,0.639689 1.45384,0 2.35522,-1.133995 1.17761,-1.482917 1.17761,-4.172522 0,-3.053064 -1.33753,-4.695904 -0.93046,-1.133995 -2.20984,-1.133995 -0.69784,0 -1.38115,0.348922 -0.52338,0.261691 -1.73006,1.570147 z" />
    <path
       id="path4966"
       style="font-style:normal;font-variant:normal;font-weight:normal;font-stretch:normal;font-size:29.77464867px;line-height:1.25;font-family:'Times New Roman';-inkscape-font-specification:'Times New Roman, ';text-align:center;letter-spacing:-0.31015259px;word-spacing:0px;text-anchor:middle;stroke-width:0.31015259;fill:#ffffff;fill-opacity:1"
       d="m 181.45978,22.91496 v 4.376059 h 3.11122 v 1.017689 h -3.11122 v 8.635811 q 0,1.293918 0.36346,1.744608 0.378,0.450691 0.95953,0.450691 0.47977,0 0.93046,-0.290768 0.45069,-0.305307 0.69784,-0.886843 h 0.567 q -0.50884,1.424763 -1.4393,2.151684 -0.93046,0.712381 -1.91907,0.712381 -0.66877,0 -1.30846,-0.36346 -0.63969,-0.377998 -0.94499,-1.061303 -0.30531,-0.697843 -0.30531,-2.137145 v -8.955656 h -2.10807 V 27.82894 q 0.79961,-0.319845 1.6283,-1.075841 0.84323,-0.770536 1.49746,-1.817301 0.33438,-0.552459 0.93046,-2.020838 z" />
    <path
       id="path4968"
       style="font-style:normal;font-variant:normal;font-weight:normal;font-stretch:normal;font-size:29.77464867px;line-height:1.25;font-family:'Times New Roman';-inkscape-font-specification:'Times New Roman, ';text-align:center;letter-spacing:-0.31015259px;word-spacing:0px;text-anchor:middle;stroke-width:0.31015259;fill:#ffffff;fill-opacity:1"
       d="m 188.92767,19.934588 q 0.61062,0 1.03223,0.436152 0.43615,0.421613 0.43615,1.032226 0,0.610613 -0.43615,1.046765 -0.42161,0.436152 -1.03223,0.436152 -0.61061,0 -1.04676,-0.436152 -0.43615,-0.436152 -0.43615,-1.046765 0,-0.610613 0.42161,-1.032226 0.43615,-0.436152 1.0613,-0.436152 z m 1.20669,6.963895 v 10.700264 q 0,1.250303 0.17446,1.671916 0.189,0.407075 0.53792,0.610613 0.36346,0.203538 1.30846,0.203538 v 0.523382 h -6.46959 v -0.523382 q 0.97407,0 1.30845,-0.188999 0.33439,-0.189 0.52339,-0.625152 0.20353,-0.436152 0.20353,-1.671916 v -5.132056 q 0,-2.166222 -0.13084,-2.805912 -0.10177,-0.465229 -0.31985,-0.63969 -0.21807,-0.188999 -0.59607,-0.188999 -0.40708,0 -0.98861,0.218076 l -0.20354,-0.523382 4.0126,-1.628301 z" />
    <path
       id="path4970"
       style="font-style:normal;font-variant:normal;font-weight:normal;font-stretch:normal;font-size:29.77464867px;line-height:1.25;font-family:'Times New Roman';-inkscape-font-specification:'Times New Roman, ';text-align:center;letter-spacing:-0.31015259px;word-spacing:0px;text-anchor:middle;stroke-width:0.31015259;fill:#ffffff;fill-opacity:1"
       d="m 197.44233,29.733471 q 1.45384,-1.45384 1.71553,-1.671916 0.65423,-0.55246 1.41023,-0.857766 0.756,-0.305306 1.49745,-0.305306 1.25031,0 2.15169,0.72692 0.90138,0.72692 1.20669,2.108068 1.49745,-1.744608 2.52968,-2.282529 1.03222,-0.552459 2.1226,-0.552459 1.06131,0 1.87546,0.552459 0.82869,0.537921 1.30845,1.773685 0.31985,0.843227 0.31985,2.645989 v 5.728131 q 0,1.250303 0.189,1.715531 0.14538,0.319845 0.53792,0.55246 0.39254,0.218076 1.27938,0.218076 v 0.523382 h -6.57136 v -0.523382 h 0.27623 q 0.85777,0 1.33753,-0.334383 0.33439,-0.232615 0.47977,-0.741459 0.0582,-0.247153 0.0582,-1.410225 v -5.728131 q 0,-1.628301 -0.39253,-2.297067 -0.567,-0.930458 -1.8173,-0.930458 -0.77054,0 -1.55561,0.392537 -0.77054,0.377998 -1.87546,1.424763 l -0.0291,0.159923 0.0291,0.625151 v 6.353282 q 0,1.36661 0.14539,1.700993 0.15992,0.334383 0.58153,0.566998 0.42162,0.218076 1.43931,0.218076 v 0.523382 h -6.73128 v -0.523382 q 1.10491,0 1.51199,-0.261691 0.42161,-0.261692 0.58154,-0.785074 0.0727,-0.247153 0.0727,-1.439302 v -5.728131 q 0,-1.628301 -0.47977,-2.340683 -0.63969,-0.930457 -1.78822,-0.930457 -0.78508,0 -1.55561,0.421613 -1.20669,0.63969 -1.86092,1.439302 v 7.138356 q 0,1.308456 0.17446,1.700993 0.189,0.392537 0.53792,0.596075 0.36346,0.188999 1.45384,0.188999 v 0.523382 h -6.58589 v -0.523382 q 0.91592,0 1.27938,-0.188999 0.36346,-0.203538 0.55246,-0.625152 0.189,-0.436152 0.189,-1.671916 v -5.088441 q 0,-2.195299 -0.13085,-2.834989 -0.10177,-0.479767 -0.31984,-0.654228 -0.21808,-0.188999 -0.59608,-0.188999 -0.40707,0 -0.97407,0.218076 l -0.21808,-0.523382 4.0126,-1.628301 h 0.62515 z" />
    <path
       id="path4972"
       style="font-style:normal;font-variant:normal;font-weight:normal;font-stretch:normal;font-size:29.77464867px;line-height:1.25;font-family:'Times New Roman';-inkscape-font-specification:'Times New Roman, ';text-align:center;letter-spacing:-0.31015259px;word-spacing:0px;text-anchor:middle;stroke-width:0.31015259;fill:#ffffff;fill-opacity:1"
       d="m 223.86829,38.689127 q -2.04991,1.584686 -2.57329,1.831839 -0.78508,0.36346 -1.67192,0.36346 -1.38115,0 -2.28253,-0.944996 -0.88684,-0.944996 -0.88684,-2.486067 0,-0.974073 0.43615,-1.686455 0.59608,-0.988611 2.06445,-1.860915 1.48292,-0.872305 4.91398,-2.122607 v -0.523383 q 0,-1.991761 -0.63969,-2.733219 -0.62515,-0.741459 -1.83183,-0.741459 -0.91592,0 -1.45384,0.494306 -0.55246,0.494305 -0.55246,1.133995 l 0.0291,0.843228 q 0,0.668766 -0.34892,1.032226 -0.33438,0.36346 -0.88684,0.36346 -0.53792,0 -0.88684,-0.377998 -0.33439,-0.377999 -0.33439,-1.032227 0,-1.250302 1.27938,-2.297067 1.27938,-1.046765 3.59099,-1.046765 1.77368,0 2.90768,0.596074 0.85776,0.450691 1.26484,1.410225 0.26169,0.625151 0.26169,2.558759 v 4.521443 q 0,1.904531 0.0727,2.340683 0.0727,0.421614 0.23262,0.566998 0.17446,0.145384 0.39253,0.145384 0.23262,0 0.40708,-0.101769 0.30531,-0.188999 1.17761,-1.061303 v 0.81415 q -1.6283,2.180761 -3.11122,2.180761 -0.71238,0 -1.13399,-0.494306 -0.42162,-0.494306 -0.43616,-1.686455 z m 0,-0.944996 v -5.073903 q -2.19529,0.872305 -2.83498,1.235765 -1.14854,0.639689 -1.64284,1.337533 -0.49431,0.697843 -0.49431,1.526532 0,1.046765 0.62515,1.744608 0.62515,0.683305 1.4393,0.683305 1.10492,0 2.90768,-1.45384 z" />
  </g>
  <g
     id="text4609"
     style="font-style:normal;font-variant:normal;font-weight:normal;font-stretch:normal;font-size:12.93451118px;line-height:1.25;font-family:'Times New Roman';-inkscape-font-specification:'Times New Roman, ';letter-spacing:0px;word-spacing:0px;fill:#ffffff;fill-opacity:1;stroke:none;stroke-width:0.32336277"
     aria-label="Not stagnent; just overfitted.">
    <path
       id="path4897"
       style="font-style:normal;font-variant:normal;font-weight:normal;font-stretch:normal;font-family:'Times New Roman';-inkscape-font-specification:'Times New Roman, ';stroke-width:0.32336277;fill:#ffffff;fill-opacity:1"
       d="m 67.956643,47.392844 h 2.32417 l 5.235699,6.423046 v -4.938861 q 0,-0.78946 -0.17684,-0.985246 -0.23368,-0.265259 -0.738934,-0.265259 h -0.296837 v -0.23368 h 2.981001 v 0.23368 h -0.303153 q -0.543148,0 -0.770513,0.328416 -0.138945,0.202101 -0.138945,0.922089 V 56.09585 H 75.844927 L 70.19871,49.199129 v 5.273592 q 0,0.78946 0.170523,0.985246 0.239996,0.265258 0.738934,0.265258 h 0.303153 v 0.23368 h -2.981001 v -0.23368 h 0.296837 q 0.549464,0 0.776829,-0.328415 0.138945,-0.202102 0.138945,-0.922089 v -5.955686 q -0.372625,-0.435782 -0.568411,-0.574727 -0.189471,-0.138945 -0.562096,-0.258943 -0.183155,-0.05684 -0.55578,-0.05684 z" />
    <path
       id="path4899"
       style="font-style:normal;font-variant:normal;font-weight:normal;font-stretch:normal;font-family:'Times New Roman';-inkscape-font-specification:'Times New Roman, ';stroke-width:0.32336277;fill:#ffffff;fill-opacity:1"
       d="m 80.708,50.00122 q 1.313661,0 2.109437,0.997877 0.675777,0.852617 0.675777,1.957861 0,0.776828 -0.372625,1.572604 -0.372625,0.795775 -1.029456,1.199979 -0.650514,0.404203 -1.452606,0.404203 -1.307345,0 -2.077858,-1.042087 -0.650515,-0.877879 -0.650515,-1.970492 0,-0.795775 0.391572,-1.578919 0.397888,-0.78946 1.042087,-1.162085 Q 79.988012,50.00122 80.708,50.00122 Z m -0.195786,0.410519 q -0.334731,0 -0.675778,0.202102 -0.334731,0.195786 -0.543148,0.694724 -0.208418,0.498939 -0.208418,1.282083 0,1.263136 0.498939,2.17891 0.505254,0.915773 1.326292,0.915773 0.612621,0 1.010509,-0.505254 0.397888,-0.505255 0.397888,-1.736812 0,-1.541026 -0.663146,-2.425221 -0.448414,-0.606305 -1.143138,-0.606305 z" />
    <path
       id="path4901"
       style="font-style:normal;font-variant:normal;font-weight:normal;font-stretch:normal;font-family:'Times New Roman';-inkscape-font-specification:'Times New Roman, ';stroke-width:0.32336277;fill:#ffffff;fill-opacity:1"
       d="m 86.025802,48.270724 v 1.901019 h 1.351555 v 0.442098 h -1.351555 v 3.751513 q 0,0.562096 0.157892,0.757882 0.164207,0.195786 0.416834,0.195786 0.208418,0 0.404204,-0.126314 0.195786,-0.132629 0.303153,-0.385256 h 0.246311 q -0.221049,0.618936 -0.625252,0.93472 -0.404204,0.309469 -0.83367,0.309469 -0.290521,0 -0.568411,-0.157892 -0.27789,-0.164208 -0.410519,-0.461045 -0.132629,-0.303153 -0.132629,-0.928405 v -3.890458 h -0.915774 v -0.208418 q 0.347362,-0.138945 0.707356,-0.46736 0.36631,-0.334731 0.650515,-0.78946 0.145261,-0.239996 0.404204,-0.877879 z" />
    <path
       id="path4903"
       style="font-style:normal;font-variant:normal;font-weight:normal;font-stretch:normal;font-family:'Times New Roman';-inkscape-font-specification:'Times New Roman, ';stroke-width:0.32336277;fill:#ffffff;fill-opacity:1"
       d="m 94.905647,50.00122 v 1.970492 H 94.69723 q -0.239996,-0.928405 -0.618937,-1.263136 -0.372625,-0.334731 -0.953667,-0.334731 -0.442098,0 -0.713672,0.23368 -0.271574,0.23368 -0.271574,0.517886 0,0.353678 0.202102,0.606305 0.195786,0.258943 0.795775,0.549464 l 0.922089,0.448413 q 1.282083,0.625252 1.282083,1.648393 0,0.789459 -0.599989,1.275767 -0.593674,0.479991 -1.332609,0.479991 -0.530517,0 -1.21261,-0.18947 -0.208417,-0.06316 -0.341047,-0.06316 -0.14526,0 -0.227364,0.164208 h -0.208418 v -2.065227 h 0.208418 q 0.176839,0.884195 0.675778,1.332608 0.498938,0.448413 1.117875,0.448413 0.435782,0 0.707356,-0.252627 0.27789,-0.258943 0.27789,-0.618936 0,-0.435782 -0.309469,-0.732619 -0.303152,-0.296837 -1.218926,-0.751566 -0.915773,-0.454729 -1.199979,-0.821038 -0.284205,-0.359994 -0.284205,-0.909458 0,-0.713672 0.486307,-1.193664 0.492623,-0.479991 1.269452,-0.479991 0.341046,0 0.827354,0.14526 0.322099,0.09474 0.429466,0.09474 0.101051,0 0.157892,-0.04421 0.05684,-0.04421 0.132629,-0.195786 z" />
    <path
       id="path4905"
       style="font-style:normal;font-variant:normal;font-weight:normal;font-stretch:normal;font-family:'Times New Roman';-inkscape-font-specification:'Times New Roman, ';stroke-width:0.32336277;fill:#ffffff;fill-opacity:1"
       d="m 97.874017,48.270724 v 1.901019 h 1.351555 v 0.442098 h -1.351555 v 3.751513 q 0,0.562096 0.157892,0.757882 0.164207,0.195786 0.416835,0.195786 0.208417,0 0.404203,-0.126314 0.195786,-0.132629 0.303153,-0.385256 h 0.246311 q -0.221049,0.618936 -0.625252,0.93472 -0.404204,0.309469 -0.83367,0.309469 -0.290521,0 -0.568411,-0.157892 -0.27789,-0.164208 -0.410519,-0.461045 -0.132629,-0.303153 -0.132629,-0.928405 v -3.890458 h -0.915774 v -0.208418 q 0.347363,-0.138945 0.707356,-0.46736 0.36631,-0.334731 0.650515,-0.78946 0.145261,-0.239996 0.404204,-0.877879 z" />
    <path
       id="path4907"
       style="font-style:normal;font-variant:normal;font-weight:normal;font-stretch:normal;font-family:'Times New Roman';-inkscape-font-specification:'Times New Roman, ';stroke-width:0.32336277;fill:#ffffff;fill-opacity:1"
       d="m 103.05919,55.123236 q -0.89051,0.688409 -1.11788,0.795775 -0.34104,0.157892 -0.7263,0.157892 -0.59999,0 -0.99156,-0.410519 -0.385258,-0.410519 -0.385258,-1.079981 0,-0.423151 0.189468,-0.732619 0.25895,-0.429466 0.89683,-0.808407 0.6442,-0.378941 2.1347,-0.922089 v -0.227364 q 0,-0.865248 -0.27789,-1.187348 -0.27158,-0.3221 -0.79578,-0.3221 -0.39788,0 -0.63156,0.214733 -0.24,0.214733 -0.24,0.492623 l 0.0126,0.36631 q 0,0.290521 -0.15158,0.448413 -0.14526,0.157892 -0.38525,0.157892 -0.23368,0 -0.38526,-0.164208 -0.14526,-0.164207 -0.14526,-0.448413 0,-0.543148 0.55578,-0.997877 0.55578,-0.454729 1.55997,-0.454729 0.77052,0 1.26314,0.258943 0.37262,0.195786 0.54946,0.612621 0.11369,0.271574 0.11369,1.111559 v 1.964176 q 0,0.827354 0.0316,1.016825 0.0316,0.183154 0.10106,0.246311 0.0758,0.06316 0.17052,0.06316 0.10105,0 0.17684,-0.04421 0.13263,-0.0821 0.51157,-0.461044 v 0.353678 q -0.70736,0.947352 -1.35156,0.947352 -0.30947,0 -0.49262,-0.214734 -0.18316,-0.214733 -0.18947,-0.732618 z m 0,-0.410519 v -2.204173 q -0.95367,0.378941 -1.23156,0.536833 -0.49894,0.27789 -0.71367,0.581043 -0.21473,0.303152 -0.21473,0.663146 0,0.454729 0.27157,0.757882 0.27157,0.296836 0.62525,0.296836 0.47999,0 1.26314,-0.631567 z" />
    <path
       id="path4909"
       style="font-style:normal;font-variant:normal;font-weight:normal;font-stretch:normal;font-family:'Times New Roman';-inkscape-font-specification:'Times New Roman, ';stroke-width:0.32336277;fill:#ffffff;fill-opacity:1"
       d="m 107.06333,53.847468 q -0.53052,-0.258942 -0.81472,-0.719987 -0.28421,-0.46736 -0.28421,-1.029456 0,-0.858932 0.6442,-1.477869 0.65052,-0.618936 1.66103,-0.618936 0.82735,0 1.43365,0.404203 h 1.22525 q 0.27157,0 0.31578,0.01895 0.0442,0.01263 0.0632,0.05053 0.0379,0.05684 0.0379,0.202101 0,0.164208 -0.0316,0.227365 -0.0189,0.03158 -0.0695,0.05053 -0.0442,0.01895 -0.31578,0.01895 h -0.75157 q 0.35368,0.454729 0.35368,1.162085 0,0.808407 -0.61894,1.383134 -0.61893,0.574727 -1.66102,0.574727 -0.42947,0 -0.87788,-0.126314 -0.27789,0.239996 -0.37894,0.423151 -0.0947,0.176839 -0.0947,0.303153 0,0.107366 0.10105,0.208417 0.10737,0.101051 0.41052,0.145261 0.17684,0.02526 0.8842,0.04421 1.30103,0.03158 1.68628,0.08842 0.58736,0.0821 0.93473,0.435782 0.35367,0.353678 0.35367,0.871563 0,0.713672 -0.66946,1.338924 -0.98524,0.92209 -2.57048,0.92209 -1.21893,0 -2.05891,-0.549464 -0.47368,-0.315784 -0.47368,-0.656831 0,-0.151576 0.0695,-0.303153 0.10737,-0.23368 0.4421,-0.650515 0.0442,-0.05684 0.6442,-0.682093 -0.32841,-0.195786 -0.46736,-0.347362 -0.13263,-0.157892 -0.13263,-0.353678 0,-0.221049 0.17684,-0.517886 0.18316,-0.296837 0.83367,-0.839986 z m 1.09893,-3.543096 q -0.46736,0 -0.78315,0.372625 -0.31578,0.372626 -0.31578,1.143138 0,0.997878 0.42947,1.547342 0.32841,0.416835 0.83367,0.416835 0.47999,0 0.78946,-0.359994 0.30946,-0.359994 0.30946,-1.130507 0,-1.004193 -0.43578,-1.572604 -0.3221,-0.416835 -0.82735,-0.416835 z m -1.16209,5.652533 q -0.29683,0.3221 -0.44841,0.59999 -0.15158,0.27789 -0.15158,0.51157 0,0.303153 0.36631,0.530517 0.63157,0.391572 1.82524,0.391572 1.13682,0 1.67365,-0.404203 0.54315,-0.397888 0.54315,-0.852617 0,-0.328415 -0.3221,-0.46736 -0.32842,-0.138945 -1.30103,-0.164208 -1.42103,-0.03789 -2.18523,-0.145261 z" />
    <path
       id="path4911"
       style="font-style:normal;font-variant:normal;font-weight:normal;font-stretch:normal;font-family:'Times New Roman';-inkscape-font-specification:'Times New Roman, ';stroke-width:0.32336277;fill:#ffffff;fill-opacity:1"
       d="m 113.66953,51.226462 q 1.01682,-1.225242 1.93891,-1.225242 0.47368,0 0.81473,0.239996 0.34104,0.23368 0.54314,0.776828 0.13895,0.378941 0.13895,1.162085 v 2.469431 q 0,0.549464 0.0884,0.74525 0.0695,0.157892 0.22105,0.246311 0.15789,0.08842 0.57473,0.08842 v 0.227364 h -2.86101 v -0.227364 h 0.12 q 0.4042,0 0.5621,-0.119998 0.1642,-0.126314 0.22736,-0.366309 0.0253,-0.09474 0.0253,-0.593674 v -2.36838 q 0,-0.78946 -0.20841,-1.143138 -0.20211,-0.359994 -0.68841,-0.359994 -0.75157,0 -1.49682,0.821039 v 3.050473 q 0,0.587358 0.0695,0.726303 0.0884,0.183155 0.24,0.271574 0.15789,0.0821 0.63157,0.0821 v 0.227364 h -2.86101 v -0.227364 h 0.12632 q 0.4421,0 0.59367,-0.221049 0.15789,-0.227364 0.15789,-0.858932 v -2.147331 q 0,-1.042087 -0.0505,-1.269452 -0.0442,-0.227364 -0.14526,-0.309468 -0.0947,-0.0821 -0.25895,-0.0821 -0.17683,0 -0.42315,0.09474 l -0.0947,-0.227364 1.74313,-0.707356 h 0.27157 z" />
    <path
       id="path4913"
       style="font-style:normal;font-variant:normal;font-weight:normal;font-stretch:normal;font-family:'Times New Roman';-inkscape-font-specification:'Times New Roman, ';stroke-width:0.32336277;fill:#ffffff;fill-opacity:1"
       d="m 119.42311,52.350652 q -0.006,1.288399 0.62526,2.021018 0.63156,0.732619 1.48418,0.732619 0.56841,0 0.98525,-0.309469 0.42315,-0.315784 0.70735,-1.073665 l 0.19579,0.126313 q -0.13263,0.865249 -0.77051,1.57892 -0.63789,0.707356 -1.59787,0.707356 -1.04209,0 -1.78734,-0.808407 -0.73893,-0.814722 -0.73893,-2.185225 0,-1.484184 0.75788,-2.311538 0.7642,-0.83367 1.91365,-0.83367 0.97261,0 1.59787,0.644199 0.62525,0.637884 0.62525,1.711549 z m 0,-0.366309 h 2.67785 q -0.0316,-0.55578 -0.13263,-0.783144 -0.15789,-0.353678 -0.47367,-0.55578 -0.30947,-0.202102 -0.65052,-0.202102 -0.5242,0 -0.94104,0.410519 -0.41051,0.404204 -0.47999,1.130507 z" />
    <path
       id="path4915"
       style="font-style:normal;font-variant:normal;font-weight:normal;font-stretch:normal;font-family:'Times New Roman';-inkscape-font-specification:'Times New Roman, ';stroke-width:0.32336277;fill:#ffffff;fill-opacity:1"
       d="m 125.87142,51.226462 q 1.01683,-1.225242 1.93892,-1.225242 0.47367,0 0.81472,0.239996 0.34105,0.23368 0.54315,0.776828 0.13894,0.378941 0.13894,1.162085 v 2.469431 q 0,0.549464 0.0884,0.74525 0.0695,0.157892 0.22105,0.246311 0.15789,0.08842 0.57473,0.08842 v 0.227364 h -2.861 v -0.227364 h 0.11999 q 0.40421,0 0.5621,-0.119998 0.16421,-0.126314 0.22736,-0.366309 0.0253,-0.09474 0.0253,-0.593674 v -2.36838 q 0,-0.78946 -0.20842,-1.143138 -0.2021,-0.359994 -0.68841,-0.359994 -0.75157,0 -1.49682,0.821039 v 3.050473 q 0,0.587358 0.0695,0.726303 0.0884,0.183155 0.23999,0.271574 0.15789,0.0821 0.63157,0.0821 v 0.227364 h -2.861 v -0.227364 h 0.12631 q 0.4421,0 0.59367,-0.221049 0.1579,-0.227364 0.1579,-0.858932 v -2.147331 q 0,-1.042087 -0.0505,-1.269452 -0.0442,-0.227364 -0.14526,-0.309468 -0.0947,-0.0821 -0.25894,-0.0821 -0.17684,0 -0.42315,0.09474 l -0.0947,-0.227364 1.74313,-0.707356 h 0.27157 z" />
    <path
       id="path4917"
       style="font-style:normal;font-variant:normal;font-weight:normal;font-stretch:normal;font-family:'Times New Roman';-inkscape-font-specification:'Times New Roman, ';stroke-width:0.32336277;fill:#ffffff;fill-opacity:1"
       d="m 132.33236,48.270724 v 1.901019 h 1.35156 v 0.442098 h -1.35156 v 3.751513 q 0,0.562096 0.15789,0.757882 0.16421,0.195786 0.41684,0.195786 0.20842,0 0.4042,-0.126314 0.19579,-0.132629 0.30316,-0.385256 h 0.24631 q -0.22105,0.618936 -0.62526,0.93472 -0.4042,0.309469 -0.83367,0.309469 -0.29052,0 -0.56841,-0.157892 -0.27789,-0.164208 -0.41052,-0.461045 -0.13262,-0.303153 -0.13262,-0.928405 v -3.890458 h -0.91578 v -0.208418 q 0.34736,-0.138945 0.70736,-0.46736 0.36631,-0.334731 0.65051,-0.78946 0.14526,-0.239996 0.40421,-0.877879 z" />
    <path
       id="path4919"
       style="font-style:normal;font-variant:normal;font-weight:normal;font-stretch:normal;font-family:'Times New Roman';-inkscape-font-specification:'Times New Roman, ';stroke-width:0.32336277;fill:#ffffff;fill-opacity:1"
       d="m 135.61652,49.988588 q 0.29052,0 0.49262,0.202102 0.20842,0.202102 0.20842,0.492623 0,0.290521 -0.20842,0.498939 -0.2021,0.202102 -0.49262,0.202102 -0.29052,0 -0.49894,-0.202102 -0.2021,-0.208418 -0.2021,-0.498939 0,-0.290521 0.2021,-0.492623 0.20842,-0.202102 0.49894,-0.202102 z m -0.8842,8.121964 v -0.27789 q 0.65052,-0.214733 1.00419,-0.669462 0.36,-0.448413 0.36,-0.953667 0,-0.119998 -0.0568,-0.202102 -0.0442,-0.05684 -0.0884,-0.05684 -0.0695,0 -0.30316,0.126313 -0.11368,0.05684 -0.23999,0.05684 -0.30947,0 -0.49262,-0.183154 -0.18316,-0.183155 -0.18316,-0.505255 0,-0.309468 0.23368,-0.530517 0.24,-0.221048 0.58104,-0.221048 0.41684,0 0.73894,0.366309 0.32841,0.359994 0.32841,0.959983 0,0.650515 -0.45473,1.206295 -0.44841,0.562095 -1.42734,0.884195 z" />
    <path
       id="path4921"
       style="font-style:normal;font-variant:normal;font-weight:normal;font-stretch:normal;font-family:'Times New Roman';-inkscape-font-specification:'Times New Roman, ';stroke-width:0.32336277;fill:#ffffff;fill-opacity:1"
       d="m 142.52587,46.969694 q 0.27157,0 0.46104,0.18947 0.18947,0.18947 0.18947,0.461045 0,0.265258 -0.18947,0.454729 -0.18947,0.18947 -0.46104,0.18947 -0.26526,0 -0.45473,-0.18947 -0.18947,-0.189471 -0.18947,-0.454729 0,-0.271575 0.18947,-0.461045 0.18947,-0.18947 0.45473,-0.18947 z m 0.54314,3.031526 v 5.823056 q 0,1.484185 -0.63156,2.204172 -0.63157,0.719988 -1.64208,0.719988 -0.57473,0 -0.85262,-0.208418 -0.27789,-0.208417 -0.27789,-0.429466 0,-0.221049 0.1579,-0.378941 0.15157,-0.157892 0.35999,-0.157892 0.16421,0 0.33473,0.0821 0.10737,0.04421 0.41052,0.315784 0.30947,0.27789 0.51789,0.27789 0.15157,0 0.29683,-0.119998 0.14526,-0.113682 0.21474,-0.391572 0.0695,-0.271574 0.0695,-1.187348 v -4.117823 q 0,-0.953667 -0.0568,-1.225241 -0.0442,-0.208418 -0.13895,-0.284206 -0.0947,-0.0821 -0.25894,-0.0821 -0.17684,0 -0.42947,0.09474 l -0.0884,-0.227364 1.74313,-0.707356 z" />
    <path
       id="path4923"
       style="font-style:normal;font-variant:normal;font-weight:normal;font-stretch:normal;font-family:'Times New Roman';-inkscape-font-specification:'Times New Roman, ';stroke-width:0.32336277;fill:#ffffff;fill-opacity:1"
       d="m 149.71943,50.171743 v 3.505202 q 0,1.004193 0.0442,1.231558 0.0505,0.221048 0.15158,0.309468 0.10736,0.08842 0.24631,0.08842 0.19578,0 0.4421,-0.107366 l 0.0884,0.221049 -1.73049,0.713671 h -0.28421 v -1.225241 q -0.74525,0.808407 -1.13682,1.016824 -0.39157,0.208417 -0.82735,0.208417 -0.48631,0 -0.8463,-0.27789 -0.35368,-0.284205 -0.49263,-0.726303 -0.13894,-0.442097 -0.13894,-1.250504 v -2.583113 q 0,-0.410519 -0.0884,-0.568411 -0.0884,-0.157892 -0.26526,-0.239996 -0.17052,-0.08842 -0.62525,-0.0821 v -0.23368 h 2.02733 v 3.871512 q 0,0.808406 0.27789,1.061034 0.28421,0.252627 0.68209,0.252627 0.27158,0 0.61262,-0.170524 0.34737,-0.170523 0.82104,-0.650514 V 51.25804 q 0,-0.492623 -0.18315,-0.663146 -0.17684,-0.176839 -0.74525,-0.189471 v -0.23368 z" />
    <path
       id="path4925"
       style="font-style:normal;font-variant:normal;font-weight:normal;font-stretch:normal;font-family:'Times New Roman';-inkscape-font-specification:'Times New Roman, ';stroke-width:0.32336277;fill:#ffffff;fill-opacity:1"
       d="m 154.85408,50.00122 v 1.970492 h -0.20842 q -0.24,-0.928405 -0.61894,-1.263136 -0.37262,-0.334731 -0.95367,-0.334731 -0.44209,0 -0.71367,0.23368 -0.27157,0.23368 -0.27157,0.517886 0,0.353678 0.2021,0.606305 0.19579,0.258943 0.79578,0.549464 l 0.92209,0.448413 q 1.28208,0.625252 1.28208,1.648393 0,0.789459 -0.59999,1.275767 -0.59367,0.479991 -1.33261,0.479991 -0.53052,0 -1.21261,-0.18947 -0.20842,-0.06316 -0.34105,-0.06316 -0.14526,0 -0.22736,0.164208 h -0.20842 v -2.065227 h 0.20842 q 0.17684,0.884195 0.67578,1.332608 0.49894,0.448413 1.11787,0.448413 0.43578,0 0.70736,-0.252627 0.27789,-0.258943 0.27789,-0.618936 0,-0.435782 -0.30947,-0.732619 -0.30315,-0.296837 -1.21893,-0.751566 -0.91577,-0.454729 -1.19998,-0.821038 -0.2842,-0.359994 -0.2842,-0.909458 0,-0.713672 0.48631,-1.193664 0.49262,-0.479991 1.26945,-0.479991 0.34104,0 0.82735,0.14526 0.3221,0.09474 0.42947,0.09474 0.10105,0 0.15789,-0.04421 0.0568,-0.04421 0.13263,-0.195786 z" />
    <path
       id="path4927"
       style="font-style:normal;font-variant:normal;font-weight:normal;font-stretch:normal;font-family:'Times New Roman';-inkscape-font-specification:'Times New Roman, ';stroke-width:0.32336277;fill:#ffffff;fill-opacity:1"
       d="m 157.82244,48.270724 v 1.901019 h 1.35156 v 0.442098 h -1.35156 v 3.751513 q 0,0.562096 0.15789,0.757882 0.16421,0.195786 0.41684,0.195786 0.20841,0 0.4042,-0.126314 0.19579,-0.132629 0.30315,-0.385256 h 0.24631 q -0.22104,0.618936 -0.62525,0.93472 -0.4042,0.309469 -0.83367,0.309469 -0.29052,0 -0.56841,-0.157892 -0.27789,-0.164208 -0.41052,-0.461045 -0.13263,-0.303153 -0.13263,-0.928405 v -3.890458 h -0.91577 v -0.208418 q 0.34736,-0.138945 0.70736,-0.46736 0.36631,-0.334731 0.65051,-0.78946 0.14526,-0.239996 0.4042,-0.877879 z" />
    <path
       id="path4929"
       style="font-style:normal;font-variant:normal;font-weight:normal;font-stretch:normal;font-family:'Times New Roman';-inkscape-font-specification:'Times New Roman, ';stroke-width:0.32336277;fill:#ffffff;fill-opacity:1"
       d="m 165.79283,50.00122 q 1.31366,0 2.10944,0.997877 0.67578,0.852617 0.67578,1.957861 0,0.776828 -0.37263,1.572604 -0.37262,0.795775 -1.02945,1.199979 -0.65052,0.404203 -1.45261,0.404203 -1.30735,0 -2.07786,-1.042087 -0.65051,-0.877879 -0.65051,-1.970492 0,-0.795775 0.39157,-1.578919 0.39789,-0.78946 1.04209,-1.162085 0.64419,-0.378941 1.36418,-0.378941 z m -0.19578,0.410519 q -0.33474,0 -0.67578,0.202102 -0.33473,0.195786 -0.54315,0.694724 -0.20842,0.498939 -0.20842,1.282083 0,1.263136 0.49894,2.17891 0.50526,0.915773 1.32629,0.915773 0.61262,0 1.01051,-0.505254 0.39789,-0.505255 0.39789,-1.736812 0,-1.541026 -0.66315,-2.425221 -0.44841,-0.606305 -1.14313,-0.606305 z" />
    <path
       id="path4931"
       style="font-style:normal;font-variant:normal;font-weight:normal;font-stretch:normal;font-family:'Times New Roman';-inkscape-font-specification:'Times New Roman, ';stroke-width:0.32336277;fill:#ffffff;fill-opacity:1"
       d="m 169.13383,50.171743 h 2.72205 v 0.23368 h -0.17684 q -0.24631,0 -0.37894,0.119998 -0.12631,0.119998 -0.12631,0.3221 0,0.221049 0.13263,0.524201 l 1.34524,3.195734 1.35155,-3.315732 q 0.14526,-0.353678 0.14526,-0.536832 0,-0.08842 -0.0505,-0.145261 -0.0695,-0.09474 -0.17684,-0.126314 -0.10737,-0.03789 -0.43578,-0.03789 v -0.23368 h 1.88839 v 0.23368 q -0.32842,0.02526 -0.45473,0.13263 -0.22105,0.18947 -0.39789,0.631567 l -2.0526,4.964124 h -0.25894 l -2.06523,-4.88202 q -0.13894,-0.341046 -0.26525,-0.486307 -0.12632,-0.151576 -0.3221,-0.252627 -0.10737,-0.05684 -0.42315,-0.107367 z" />
    <path
       id="path4933"
       style="font-style:normal;font-variant:normal;font-weight:normal;font-stretch:normal;font-family:'Times New Roman';-inkscape-font-specification:'Times New Roman, ';stroke-width:0.32336277;fill:#ffffff;fill-opacity:1"
       d="m 176.87053,52.350652 q -0.006,1.288399 0.62525,2.021018 0.63157,0.732619 1.48419,0.732619 0.56841,0 0.98524,-0.309469 0.42315,-0.315784 0.70736,-1.073665 l 0.19579,0.126313 q -0.13263,0.865249 -0.77052,1.57892 -0.63788,0.707356 -1.59786,0.707356 -1.04209,0 -1.78734,-0.808407 -0.73893,-0.814722 -0.73893,-2.185225 0,-1.484184 0.75788,-2.311538 0.76419,-0.83367 1.91365,-0.83367 0.97261,0 1.59786,0.644199 0.62526,0.637884 0.62526,1.711549 z m 0,-0.366309 h 2.67785 q -0.0316,-0.55578 -0.13263,-0.783144 -0.15789,-0.353678 -0.47368,-0.55578 -0.30946,-0.202102 -0.65051,-0.202102 -0.5242,0 -0.94104,0.410519 -0.41052,0.404204 -0.47999,1.130507 z" />
    <path
       id="path4935"
       style="font-style:normal;font-variant:normal;font-weight:normal;font-stretch:normal;font-family:'Times New Roman';-inkscape-font-specification:'Times New Roman, ';stroke-width:0.32336277;fill:#ffffff;fill-opacity:1"
       d="m 183.32515,50.00122 v 1.30103 q 0.72631,-1.30103 1.4905,-1.30103 0.34737,0 0.57473,0.214733 0.22736,0.208417 0.22736,0.486307 0,0.246312 -0.1642,0.416835 -0.16421,0.170523 -0.39157,0.170523 -0.22105,0 -0.49894,-0.214733 -0.27158,-0.221049 -0.40421,-0.221049 -0.11368,0 -0.24631,0.126314 -0.2842,0.258943 -0.58736,0.852617 v 2.772583 q 0,0.479992 0.12,0.726303 0.0821,0.170523 0.29052,0.284206 0.20842,0.113682 0.59999,0.113682 v 0.227364 h -2.96205 v -0.227364 q 0.4421,0 0.65683,-0.138945 0.15789,-0.101051 0.22105,-0.3221 0.0316,-0.107366 0.0316,-0.612621 v -2.242066 q 0,-1.010508 -0.0442,-1.199979 -0.0379,-0.195786 -0.15158,-0.284205 -0.10737,-0.08842 -0.27157,-0.08842 -0.19579,0 -0.4421,0.09474 l -0.0632,-0.227364 1.74944,-0.707356 z" />
    <path
       id="path4937"
       style="font-style:normal;font-variant:normal;font-weight:normal;font-stretch:normal;font-family:'Times New Roman';-inkscape-font-specification:'Times New Roman, ';stroke-width:0.32336277;fill:#ffffff;fill-opacity:1"
       d="m 188.2135,50.626472 v 3.802039 q 0,0.808407 0.17683,1.02314 0.23368,0.27789 0.62526,0.27789 h 0.5242 v 0.227364 h -3.45468 v -0.227364 h 0.25894 q 0.25263,0 0.46105,-0.126314 0.20842,-0.126313 0.2842,-0.341046 0.0821,-0.214733 0.0821,-0.83367 v -3.802039 h -1.12419 v -0.454729 h 1.12419 v -0.378941 q 0,-0.865248 0.27789,-1.465237 0.27789,-0.59999 0.8463,-0.966299 0.57473,-0.372625 1.2884,-0.372625 0.66314,0 1.21892,0.429466 0.36631,0.284206 0.36631,0.637884 0,0.18947 -0.1642,0.359993 -0.16421,0.164208 -0.35368,0.164208 -0.14526,0 -0.30947,-0.101051 -0.15789,-0.107366 -0.39157,-0.448413 -0.23368,-0.347363 -0.42947,-0.46736 -0.19578,-0.119998 -0.43578,-0.119998 -0.29052,0 -0.49262,0.157892 -0.20211,0.151576 -0.29053,0.479991 -0.0884,0.3221 -0.0884,1.673655 v 0.416835 h 1.4905 v 0.454729 z" />
    <path
       id="path4939"
       style="font-style:normal;font-variant:normal;font-weight:normal;font-stretch:normal;font-family:'Times New Roman';-inkscape-font-specification:'Times New Roman, ';stroke-width:0.32336277;fill:#ffffff;fill-opacity:1"
       d="m 191.74396,46.976009 q 0.26526,0 0.44841,0.189471 0.18947,0.183154 0.18947,0.448413 0,0.265259 -0.18947,0.454729 -0.18315,0.18947 -0.44841,0.18947 -0.26526,0 -0.45473,-0.18947 -0.18947,-0.18947 -0.18947,-0.454729 0,-0.265259 0.18315,-0.448413 0.18947,-0.189471 0.46105,-0.189471 z m 0.5242,3.025211 v 4.64834 q 0,0.543148 0.0758,0.726303 0.0821,0.176839 0.23368,0.265258 0.15789,0.08842 0.56841,0.08842 v 0.227364 h -2.81048 v -0.227364 q 0.42315,0 0.56841,-0.0821 0.14526,-0.0821 0.22737,-0.271574 0.0884,-0.189471 0.0884,-0.726303 v -2.229435 q 0,-0.941036 -0.0568,-1.218926 -0.0442,-0.202102 -0.13895,-0.27789 -0.0947,-0.0821 -0.25894,-0.0821 -0.17684,0 -0.42947,0.09474 l -0.0884,-0.227364 1.74313,-0.707356 z" />
    <path
       id="path4941"
       style="font-style:normal;font-variant:normal;font-weight:normal;font-stretch:normal;font-family:'Times New Roman';-inkscape-font-specification:'Times New Roman, ';stroke-width:0.32336277;fill:#ffffff;fill-opacity:1"
       d="m 195.53968,48.270724 v 1.901019 h 1.35155 v 0.442098 h -1.35155 v 3.751513 q 0,0.562096 0.15789,0.757882 0.16421,0.195786 0.41684,0.195786 0.20841,0 0.4042,-0.126314 0.19579,-0.132629 0.30315,-0.385256 h 0.24631 q -0.22104,0.618936 -0.62525,0.93472 -0.4042,0.309469 -0.83367,0.309469 -0.29052,0 -0.56841,-0.157892 -0.27789,-0.164208 -0.41052,-0.461045 -0.13263,-0.303153 -0.13263,-0.928405 v -3.890458 h -0.91577 v -0.208418 q 0.34736,-0.138945 0.70736,-0.46736 0.3663,-0.334731 0.65051,-0.78946 0.14526,-0.239996 0.4042,-0.877879 z" />
    <path
       id="path4943"
       style="font-style:normal;font-variant:normal;font-weight:normal;font-stretch:normal;font-family:'Times New Roman';-inkscape-font-specification:'Times New Roman, ';stroke-width:0.32336277;fill:#ffffff;fill-opacity:1"
       d="m 199.12699,48.270724 v 1.901019 h 1.35156 v 0.442098 h -1.35156 v 3.751513 q 0,0.562096 0.15789,0.757882 0.16421,0.195786 0.41684,0.195786 0.20841,0 0.4042,-0.126314 0.19579,-0.132629 0.30315,-0.385256 h 0.24631 q -0.22104,0.618936 -0.62525,0.93472 -0.4042,0.309469 -0.83367,0.309469 -0.29052,0 -0.56841,-0.157892 -0.27789,-0.164208 -0.41052,-0.461045 -0.13263,-0.303153 -0.13263,-0.928405 v -3.890458 h -0.91577 v -0.208418 q 0.34736,-0.138945 0.70736,-0.46736 0.36631,-0.334731 0.65051,-0.78946 0.14526,-0.239996 0.4042,-0.877879 z" />
    <path
       id="path4945"
       style="font-style:normal;font-variant:normal;font-weight:normal;font-stretch:normal;font-family:'Times New Roman';-inkscape-font-specification:'Times New Roman, ';stroke-width:0.32336277;fill:#ffffff;fill-opacity:1"
       d="m 202.00693,52.350652 q -0.006,1.288399 0.62525,2.021018 0.63157,0.732619 1.48419,0.732619 0.56841,0 0.98524,-0.309469 0.42315,-0.315784 0.70736,-1.073665 l 0.19578,0.126313 q -0.13262,0.865249 -0.77051,1.57892 -0.63788,0.707356 -1.59786,0.707356 -1.04209,0 -1.78734,-0.808407 -0.73894,-0.814722 -0.73894,-2.185225 0,-1.484184 0.75788,-2.311538 0.7642,-0.83367 1.91366,-0.83367 0.97261,0 1.59786,0.644199 0.62525,0.637884 0.62525,1.711549 z m 0,-0.366309 h 2.67785 q -0.0316,-0.55578 -0.13263,-0.783144 -0.15789,-0.353678 -0.47368,-0.55578 -0.30947,-0.202102 -0.65051,-0.202102 -0.5242,0 -0.94104,0.410519 -0.41052,0.404204 -0.47999,1.130507 z" />
    <path
       id="path4947"
       style="font-style:normal;font-variant:normal;font-weight:normal;font-stretch:normal;font-family:'Times New Roman';-inkscape-font-specification:'Times New Roman, ';stroke-width:0.32336277;fill:#ffffff;fill-opacity:1"
       d="m 210.85521,55.30639 q -0.42315,0.442098 -0.82735,0.637884 -0.40421,0.18947 -0.87157,0.18947 -0.94735,0 -1.65471,-0.78946 -0.70735,-0.795775 -0.70735,-2.039964 0,-1.244189 0.78314,-2.273644 0.78315,-1.035772 2.0147,-1.035772 0.7642,0 1.26314,0.486307 v -1.067349 q 0,-0.991562 -0.0505,-1.218926 -0.0442,-0.227365 -0.14526,-0.309469 -0.10105,-0.0821 -0.25262,-0.0821 -0.16421,0 -0.43579,0.101051 l -0.0821,-0.221049 1.72418,-0.707356 h 0.28421 v 6.688305 q 0,1.016824 0.0442,1.244189 0.0505,0.221048 0.15157,0.309468 0.10737,0.08842 0.24631,0.08842 0.17053,0 0.45473,-0.107366 l 0.0695,0.221049 -1.71787,0.713671 h -0.29052 z m 0,-0.442097 v -2.981001 q -0.0379,-0.429466 -0.22737,-0.783144 -0.18947,-0.353678 -0.50525,-0.530517 -0.30947,-0.183155 -0.6063,-0.183155 -0.55578,0 -0.99157,0.498939 -0.57472,0.656831 -0.57472,1.919966 0,1.275768 0.55578,1.957861 0.55578,0.675778 1.23787,0.675778 0.57473,0 1.11156,-0.574727 z" />
    <path
       id="path4949"
       style="font-style:normal;font-variant:normal;font-weight:normal;font-stretch:normal;font-family:'Times New Roman';-inkscape-font-specification:'Times New Roman, ';stroke-width:0.32336277;fill:#ffffff;fill-opacity:1"
       d="m 214.44883,54.731664 q 0.29684,0 0.49894,0.208417 0.2021,0.202102 0.2021,0.492623 0,0.290521 -0.20842,0.498939 -0.2021,0.202101 -0.49262,0.202101 -0.29052,0 -0.49894,-0.202101 -0.2021,-0.208418 -0.2021,-0.498939 0,-0.296837 0.2021,-0.498939 0.20842,-0.202101 0.49894,-0.202101 z" />
  </g>
</svg>
