<?xml version="1.0" encoding="UTF-8" standalone="no"?>
<svg
   xmlns:dc="http://purl.org/dc/elements/1.1/"
   xmlns:cc="http://creativecommons.org/ns#"
   xmlns:rdf="http://www.w3.org/1999/02/22-rdf-syntax-ns#"
   xmlns:svg="http://www.w3.org/2000/svg"
   xmlns="http://www.w3.org/2000/svg"
   width="160.40707mm"
   height="38.820171mm"
   viewBox="0 0 160.40707 38.820171"
   version="1.1"
   id="svg8">
  <defs
     id="defs2" />
  <metadata
     id="metadata5">
    <rdf:RDF>
      <cc:Work
         rdf:about="">
        <dc:format>image/svg+xml</dc:format>
        <dc:type
           rdf:resource="http://purl.org/dc/dcmitype/StillImage" />
        <dc:title></dc:title>
      </cc:Work>
    </rdf:RDF>
  </metadata>
  <g
     transform="translate(-83.620621,-95.746489)"
     id="text4605"
     style="font-style:normal;font-weight:normal;font-size:12.40610313px;line-height:1.25;font-family:sans-serif;letter-spacing:0px;word-spacing:0px;fill:#ffffff;fill-opacity:1;stroke:none;stroke-width:0.31015259"
     aria-label="Local Optima">
    <path
       id="path4753"
       style="font-style:normal;font-variant:normal;font-weight:normal;font-stretch:normal;font-size:29.77464867px;line-height:1.25;font-family:'Times New Roman';-inkscape-font-specification:'Times New Roman, ';text-align:center;letter-spacing:-0.31015259px;word-spacing:0px;text-anchor:middle;stroke-width:0.31015259;fill:#ffffff;fill-opacity:1"
       d="m 100.09263,110.9682 0.47977,0.10177 -1.686456,5.35013 H 83.620621 v -0.53792 h 0.741458 q 1.250303,0 1.788224,-0.81415 0.305306,-0.46523 0.305306,-2.15169 v -12.7211 q 0,-1.846377 -0.407075,-2.311606 -0.566998,-0.63969 -1.686455,-0.63969 H 83.620621 V 96.706023 H 92.5472 v 0.537921 q -1.570147,-0.01454 -2.209837,0.290768 -0.625151,0.305307 -0.857766,0.770536 -0.232614,0.465229 -0.232614,2.224372 v 12.38672 q 0,1.20669 0.232614,1.65738 0.174461,0.30531 0.537921,0.45069 0.36346,0.14538 2.267991,0.14538 h 1.439302 q 2.267991,0 3.18391,-0.33438 0.915919,-0.33438 1.671916,-1.17761 0.755997,-0.85776 1.511993,-2.6896 z" />
    <path
       id="path4755"
       style="font-style:normal;font-variant:normal;font-weight:normal;font-stretch:normal;font-size:29.77464867px;line-height:1.25;font-family:'Times New Roman';-inkscape-font-specification:'Times New Roman, ';text-align:center;letter-spacing:-0.31015259px;word-spacing:0px;text-anchor:middle;stroke-width:0.31015259;fill:#ffffff;fill-opacity:1"
       d="m 108.36014,102.71038 q 3.02398,0 4.85582,2.29707 1.55561,1.96269 1.55561,4.50691 0,1.78822 -0.85776,3.62006 -0.85777,1.83184 -2.36976,2.76229 -1.49746,0.93046 -3.34384,0.93046 -3.00945,0 -4.78313,-2.39883 -1.49746,-2.02084 -1.49746,-4.53599 0,-1.83183 0.90138,-3.6346 0.91592,-1.8173 2.39884,-2.67506 1.48292,-0.87231 3.1403,-0.87231 z m -0.45069,0.945 q -0.77054,0 -1.55561,0.46523 -0.77054,0.45069 -1.25031,1.59922 -0.47976,1.14854 -0.47976,2.9513 0,2.90768 1.14853,5.01575 1.16307,2.10807 3.05307,2.10807 1.41022,0 2.32614,-1.16308 0.91592,-1.16307 0.91592,-3.99806 0,-3.54737 -1.52653,-5.58274 -1.03223,-1.39569 -2.63145,-1.39569 z" />
    <path
       id="path4757"
       style="font-style:normal;font-variant:normal;font-weight:normal;font-stretch:normal;font-size:29.77464867px;line-height:1.25;font-family:'Times New Roman';-inkscape-font-specification:'Times New Roman, ';text-align:center;letter-spacing:-0.31015259px;word-spacing:0px;text-anchor:middle;stroke-width:0.31015259;fill:#ffffff;fill-opacity:1"
       d="m 127.73498,111.36073 q -0.53792,2.63145 -2.10807,4.05622 -1.57015,1.41022 -3.47468,1.41022 -2.26799,0 -3.95444,-1.90453 -1.68646,-1.90453 -1.68646,-5.14659 0,-3.1403 1.86092,-5.10298 1.87545,-1.96269 4.49236,-1.96269 1.96269,0 3.22753,1.04677 1.26484,1.03223 1.26484,2.15168 0,0.55246 -0.36346,0.90138 -0.34892,0.33439 -0.98861,0.33439 -0.85777,0 -1.29392,-0.55246 -0.24715,-0.30531 -0.33438,-1.16308 -0.0727,-0.85776 -0.58154,-1.30845 -0.50884,-0.43615 -1.41022,-0.43615 -1.45384,0 -2.34069,1.07584 -1.17761,1.42476 -1.17761,3.76544 0,2.3843 1.16308,4.21614 1.17761,1.8173 3.16937,1.8173 1.42476,0 2.55876,-0.97407 0.79961,-0.66877 1.5556,-2.42791 z" />
    <path
       id="path4759"
       style="font-style:normal;font-variant:normal;font-weight:normal;font-stretch:normal;font-size:29.77464867px;line-height:1.25;font-family:'Times New Roman';-inkscape-font-specification:'Times New Roman, ';text-align:center;letter-spacing:-0.31015259px;word-spacing:0px;text-anchor:middle;stroke-width:0.31015259;fill:#ffffff;fill-opacity:1"
       d="m 136.86025,114.50103 q -2.04991,1.58468 -2.57329,1.83184 -0.78508,0.36346 -1.67192,0.36346 -1.38115,0 -2.28253,-0.945 -0.88684,-0.945 -0.88684,-2.48607 0,-0.97407 0.43615,-1.68645 0.59607,-0.98861 2.06445,-1.86092 1.48292,-0.8723 4.91398,-2.1226 v -0.52339 q 0,-1.99176 -0.63969,-2.73322 -0.62515,-0.74145 -1.83184,-0.74145 -0.91592,0 -1.45384,0.4943 -0.55246,0.49431 -0.55246,1.134 l 0.0291,0.84322 q 0,0.66877 -0.34892,1.03223 -0.33438,0.36346 -0.88684,0.36346 -0.53792,0 -0.88685,-0.378 -0.33438,-0.378 -0.33438,-1.03222 0,-1.25031 1.27938,-2.29707 1.27938,-1.04677 3.59099,-1.04677 1.77368,0 2.90768,0.59608 0.85776,0.45069 1.26484,1.41022 0.26169,0.62515 0.26169,2.55876 v 4.52145 q 0,1.90453 0.0727,2.34068 0.0727,0.42161 0.23262,0.567 0.17446,0.14538 0.39253,0.14538 0.23262,0 0.40708,-0.10177 0.3053,-0.189 1.17761,-1.0613 v 0.81415 q -1.6283,2.18076 -3.11122,2.18076 -0.71238,0 -1.134,-0.49431 -0.42161,-0.4943 -0.43615,-1.68645 z m 0,-0.945 v -5.0739 q -2.1953,0.8723 -2.83499,1.23576 -1.14853,0.63969 -1.64284,1.33754 -0.4943,0.69784 -0.4943,1.52653 0,1.04676 0.62515,1.74461 0.62515,0.6833 1.4393,0.6833 1.10492,0 2.90768,-1.45384 z" />
    <path
       id="path4761"
       style="font-style:normal;font-variant:normal;font-weight:normal;font-stretch:normal;font-size:29.77464867px;line-height:1.25;font-family:'Times New Roman';-inkscape-font-specification:'Times New Roman, ';text-align:center;letter-spacing:-0.31015259px;word-spacing:0px;text-anchor:middle;stroke-width:0.31015259;fill:#ffffff;fill-opacity:1"
       d="m 146.78514,95.746489 v 17.664161 q 0,1.2503 0.17446,1.65738 0.189,0.40707 0.56699,0.62515 0.378,0.20353 1.41023,0.20353 v 0.52339 h -6.52774 v -0.52339 q 0.91592,0 1.2503,-0.18899 0.33438,-0.189 0.52338,-0.62516 0.189,-0.43615 0.189,-1.67191 V 101.3147 q 0,-2.253455 -0.10177,-2.7623 -0.10177,-0.523382 -0.33438,-0.712381 -0.21808,-0.188999 -0.567,-0.188999 -0.378,0 -0.95953,0.232614 l -0.24716,-0.508844 3.96899,-1.628301 z" />
    <path
       id="path4763"
       style="font-style:normal;font-variant:normal;font-weight:normal;font-stretch:normal;font-size:29.77464867px;line-height:1.25;font-family:'Times New Roman';-inkscape-font-specification:'Times New Roman, ';text-align:center;letter-spacing:-0.31015259px;word-spacing:0px;text-anchor:middle;stroke-width:0.31015259;fill:#ffffff;fill-opacity:1"
       d="m 167.24551,96.255333 q 3.83814,0 6.64405,2.922219 2.82045,2.907678 2.82045,7.269198 0,4.49237 -2.83499,7.4582 -2.83498,2.96584 -6.86212,2.96584 -4.07075,0 -6.84759,-2.89314 -2.7623,-2.89315 -2.7623,-7.48728 0,-4.69591 3.19845,-7.66174 2.77684,-2.573297 6.64405,-2.573297 z m -0.27623,1.061303 q -2.64599,0 -4.24521,1.962685 -1.99176,2.442449 -1.99176,7.152889 0,4.82675 2.06445,7.42913 1.58469,1.97722 4.18706,1.97722 2.77684,0 4.5796,-2.16622 1.8173,-2.16622 1.8173,-6.83305 0,-5.05936 -1.99176,-7.545431 -1.59923,-1.977223 -4.41968,-1.977223 z" />
    <path
       id="path4765"
       style="font-style:normal;font-variant:normal;font-weight:normal;font-stretch:normal;font-size:29.77464867px;line-height:1.25;font-family:'Times New Roman';-inkscape-font-specification:'Times New Roman, ';text-align:center;letter-spacing:-0.31015259px;word-spacing:0px;text-anchor:middle;stroke-width:0.31015259;fill:#ffffff;fill-opacity:1"
       d="m 177.53385,104.42592 4.09983,-1.65738 h 0.55246 v 3.11122 q 1.03223,-1.75915 2.06446,-2.45699 1.04676,-0.71239 2.19529,-0.71239 2.0063,0 3.34384,1.57015 1.64284,1.91907 1.64284,5.00121 0,3.4456 -1.97723,5.69906 -1.6283,1.84637 -4.09983,1.84637 -1.07584,0 -1.86091,-0.3053 -0.58154,-0.21808 -1.30846,-0.87231 v 4.05622 q 0,1.36661 0.15992,1.73007 0.17447,0.37799 0.58154,0.59607 0.42161,0.21808 1.51199,0.21808 v 0.53792 h -6.97843 V 122.25 h 0.36346 q 0.79961,0.0145 1.36661,-0.30531 0.27623,-0.15992 0.42161,-0.52338 0.15993,-0.34892 0.15993,-1.80276 v -12.59026 q 0,-1.29392 -0.11631,-1.64284 -0.11631,-0.34892 -0.378,-0.52338 -0.24715,-0.17446 -0.6833,-0.17446 -0.34893,0 -0.88685,0.20353 z m 4.65229,2.3116 v 4.97213 q 0,1.61377 0.13085,2.12261 0.20354,0.84323 0.98861,1.48292 0.79961,0.63969 2.0063,0.63969 1.45384,0 2.35522,-1.134 1.17761,-1.48291 1.17761,-4.17252 0,-3.05306 -1.33753,-4.6959 -0.93046,-1.134 -2.20984,-1.134 -0.69784,0 -1.38115,0.34892 -0.52338,0.26169 -1.73007,1.57015 z" />
    <path
       id="path4767"
       style="font-style:normal;font-variant:normal;font-weight:normal;font-stretch:normal;font-size:29.77464867px;line-height:1.25;font-family:'Times New Roman';-inkscape-font-specification:'Times New Roman, ';text-align:center;letter-spacing:-0.31015259px;word-spacing:0px;text-anchor:middle;stroke-width:0.31015259;fill:#ffffff;fill-opacity:1"
       d="m 196.93777,98.726861 v 4.376059 h 3.11122 v 1.01769 h -3.11122 v 8.63581 q 0,1.29392 0.36346,1.74461 0.378,0.45069 0.95954,0.45069 0.47977,0 0.93046,-0.29077 0.45069,-0.30531 0.69784,-0.88684 h 0.567 q -0.50885,1.42476 -1.4393,2.15168 -0.93046,0.71238 -1.91907,0.71238 -0.66877,0 -1.30846,-0.36346 -0.63969,-0.378 -0.945,-1.0613 -0.3053,-0.69784 -0.3053,-2.13715 v -8.95565 h -2.10807 v -0.47977 q 0.79961,-0.31984 1.6283,-1.07584 0.84323,-0.77054 1.49746,-1.8173 0.33438,-0.55246 0.93045,-2.020839 z" />
    <path
       id="path4769"
       style="font-style:normal;font-variant:normal;font-weight:normal;font-stretch:normal;font-size:29.77464867px;line-height:1.25;font-family:'Times New Roman';-inkscape-font-specification:'Times New Roman, ';text-align:center;letter-spacing:-0.31015259px;word-spacing:0px;text-anchor:middle;stroke-width:0.31015259;fill:#ffffff;fill-opacity:1"
       d="m 204.40567,95.746489 q 0.61061,0 1.03223,0.436152 0.43615,0.421614 0.43615,1.032226 0,0.610613 -0.43615,1.046765 -0.42162,0.436152 -1.03223,0.436152 -0.61061,0 -1.04677,-0.436152 -0.43615,-0.436152 -0.43615,-1.046765 0,-0.610612 0.42162,-1.032226 0.43615,-0.436152 1.0613,-0.436152 z m 1.20669,6.963891 v 10.70027 q 0,1.2503 0.17446,1.67191 0.189,0.40708 0.53792,0.61062 0.36346,0.20353 1.30845,0.20353 v 0.52339 h -6.46958 v -0.52339 q 0.97407,0 1.30845,-0.18899 0.33438,-0.189 0.52338,-0.62516 0.20354,-0.43615 0.20354,-1.67191 v -5.13206 q 0,-2.16622 -0.13084,-2.80591 -0.10177,-0.46523 -0.31985,-0.63969 -0.21807,-0.189 -0.59607,-0.189 -0.40708,0 -0.98861,0.21808 l -0.20354,-0.52339 4.0126,-1.6283 z" />
    <path
       id="path4771"
       style="font-style:normal;font-variant:normal;font-weight:normal;font-stretch:normal;font-size:29.77464867px;line-height:1.25;font-family:'Times New Roman';-inkscape-font-specification:'Times New Roman, ';text-align:center;letter-spacing:-0.31015259px;word-spacing:0px;text-anchor:middle;stroke-width:0.31015259;fill:#ffffff;fill-opacity:1"
       d="m 212.92033,105.54537 q 1.45384,-1.45384 1.71553,-1.67191 0.65423,-0.55246 1.41023,-0.85777 0.75599,-0.30531 1.49745,-0.30531 1.2503,0 2.15168,0.72692 0.90139,0.72692 1.20669,2.10807 1.49746,-1.74461 2.52968,-2.28253 1.03223,-0.55246 2.12261,-0.55246 1.0613,0 1.87546,0.55246 0.82868,0.53792 1.30845,1.77369 0.31985,0.84323 0.31985,2.64599 v 5.72813 q 0,1.2503 0.189,1.71553 0.14538,0.31984 0.53792,0.55246 0.39253,0.21807 1.27938,0.21807 v 0.52339 h -6.57136 v -0.52339 h 0.27623 q 0.85776,0 1.33753,-0.33438 0.33438,-0.23261 0.47977,-0.74146 0.0581,-0.24715 0.0581,-1.41022 v -5.72813 q 0,-1.6283 -0.39254,-2.29707 -0.56699,-0.93046 -1.8173,-0.93046 -0.77053,0 -1.55561,0.39254 -0.77053,0.378 -1.87545,1.42476 l -0.0291,0.15992 0.0291,0.62516 v 6.35328 q 0,1.36661 0.14539,1.70099 0.15992,0.33438 0.58153,0.567 0.42161,0.21807 1.4393,0.21807 v 0.52339 h -6.73128 v -0.52339 q 1.10492,0 1.512,-0.26169 0.42161,-0.26169 0.58153,-0.78507 0.0727,-0.24715 0.0727,-1.4393 v -5.72813 q 0,-1.6283 -0.47976,-2.34069 -0.63969,-0.93045 -1.78823,-0.93045 -0.78507,0 -1.55561,0.42161 -1.20668,0.63969 -1.86091,1.4393 v 7.13836 q 0,1.30845 0.17446,1.70099 0.189,0.39254 0.53792,0.59608 0.36346,0.18899 1.45384,0.18899 v 0.52339 h -6.5859 v -0.52339 q 0.91592,0 1.27938,-0.18899 0.36346,-0.20354 0.55246,-0.62516 0.189,-0.43615 0.189,-1.67191 v -5.08844 q 0,-2.1953 -0.13084,-2.83499 -0.10177,-0.47977 -0.31985,-0.65423 -0.21807,-0.189 -0.59607,-0.189 -0.40708,0 -0.97408,0.21808 l -0.21807,-0.52339 4.0126,-1.6283 h 0.62515 z" />
    <path
       id="path4773"
       style="font-style:normal;font-variant:normal;font-weight:normal;font-stretch:normal;font-size:29.77464867px;line-height:1.25;font-family:'Times New Roman';-inkscape-font-specification:'Times New Roman, ';text-align:center;letter-spacing:-0.31015259px;word-spacing:0px;text-anchor:middle;stroke-width:0.31015259;fill:#ffffff;fill-opacity:1"
       d="m 239.34629,114.50103 q -2.04991,1.58468 -2.5733,1.83184 -0.78507,0.36346 -1.67191,0.36346 -1.38115,0 -2.28253,-0.945 -0.88684,-0.945 -0.88684,-2.48607 0,-0.97407 0.43615,-1.68645 0.59607,-0.98861 2.06445,-1.86092 1.48292,-0.8723 4.91398,-2.1226 v -0.52339 q 0,-1.99176 -0.63969,-2.73322 -0.62515,-0.74145 -1.83184,-0.74145 -0.91592,0 -1.45384,0.4943 -0.55246,0.49431 -0.55246,1.134 l 0.0291,0.84322 q 0,0.66877 -0.34892,1.03223 -0.33439,0.36346 -0.88684,0.36346 -0.53793,0 -0.88685,-0.378 -0.33438,-0.378 -0.33438,-1.03222 0,-1.25031 1.27938,-2.29707 1.27938,-1.04677 3.59098,-1.04677 1.77369,0 2.90768,0.59608 0.85777,0.45069 1.26485,1.41022 0.26169,0.62515 0.26169,2.55876 v 4.52145 q 0,1.90453 0.0727,2.34068 0.0727,0.42161 0.23261,0.567 0.17446,0.14538 0.39254,0.14538 0.23262,0 0.40708,-0.10177 0.3053,-0.189 1.17761,-1.0613 v 0.81415 q -1.6283,2.18076 -3.11122,2.18076 -0.71238,0 -1.134,-0.49431 -0.42161,-0.4943 -0.43615,-1.68645 z m 0,-0.945 v -5.0739 q -2.1953,0.8723 -2.83499,1.23576 -1.14853,0.63969 -1.64284,1.33754 -0.4943,0.69784 -0.4943,1.52653 0,1.04676 0.62515,1.74461 0.62515,0.6833 1.4393,0.6833 1.10492,0 2.90768,-1.45384 z" />
  </g>
  <g
     transform="translate(-83.620621,-95.746489)"
     id="text4609"
     style="font-style:normal;font-variant:normal;font-weight:normal;font-stretch:normal;font-size:12.93451118px;line-height:1.25;font-family:'Times New Roman';-inkscape-font-specification:'Times New Roman, ';letter-spacing:0px;word-spacing:0px;fill:#ffffff;fill-opacity:1;stroke:none;stroke-width:0.32336277"
     aria-label="Not stagnent; just overfitted.">
    <path
       id="path4698"
       style="font-style:normal;font-variant:normal;font-weight:normal;font-stretch:normal;font-family:'Times New Roman';-inkscape-font-specification:'Times New Roman, ';stroke-width:0.32336277;fill:#ffffff;fill-opacity:1"
       d="m 90.227525,123.21107 h 2.32417 l 5.235698,6.42305 v -4.93887 q 0,-0.78946 -0.176839,-0.98524 -0.23368,-0.26526 -0.738934,-0.26526 h -0.296837 v -0.23368 h 2.981 v 0.23368 h -0.303152 q -0.543149,0 -0.770513,0.32842 -0.138945,0.2021 -0.138945,0.92208 v 7.21883 h -0.227365 l -5.646217,-6.89673 v 5.2736 q 0,0.78946 0.170524,0.98524 0.239995,0.26526 0.738934,0.26526 h 0.303153 v 0.23368 h -2.981001 v -0.23368 h 0.296837 q 0.549464,0 0.776828,-0.32841 0.138945,-0.20211 0.138945,-0.92209 v -5.95569 q -0.372625,-0.43578 -0.568411,-0.57473 -0.18947,-0.13894 -0.562095,-0.25894 -0.183155,-0.0568 -0.55578,-0.0568 z" />
    <path
       id="path4700"
       style="font-style:normal;font-variant:normal;font-weight:normal;font-stretch:normal;font-family:'Times New Roman';-inkscape-font-specification:'Times New Roman, ';stroke-width:0.32336277;fill:#ffffff;fill-opacity:1"
       d="m 102.97888,125.81945 q 1.31366,0 2.10944,0.99787 0.67578,0.85262 0.67578,1.95786 0,0.77683 -0.37263,1.57261 -0.37262,0.79577 -1.02945,1.19998 -0.65052,0.4042 -1.45261,0.4042 -1.30735,0 -2.07786,-1.04209 -0.65051,-0.87788 -0.65051,-1.97049 0,-0.79577 0.39157,-1.57892 0.39789,-0.78946 1.04208,-1.16208 0.6442,-0.37894 1.36419,-0.37894 z m -0.19578,0.41051 q -0.33474,0 -0.67578,0.20211 -0.33473,0.19578 -0.54315,0.69472 -0.20842,0.49894 -0.20842,1.28208 0,1.26314 0.49894,2.17891 0.50525,0.91578 1.32629,0.91578 0.61262,0 1.01051,-0.50526 0.39789,-0.50525 0.39789,-1.73681 0,-1.54102 -0.66315,-2.42522 -0.44841,-0.60631 -1.14313,-0.60631 z" />
    <path
       id="path4702"
       style="font-style:normal;font-variant:normal;font-weight:normal;font-stretch:normal;font-family:'Times New Roman';-inkscape-font-specification:'Times New Roman, ';stroke-width:0.32336277;fill:#ffffff;fill-opacity:1"
       d="m 108.29668,124.08895 v 1.90102 h 1.35156 v 0.4421 h -1.35156 v 3.75151 q 0,0.5621 0.1579,0.75788 0.1642,0.19579 0.41683,0.19579 0.20842,0 0.4042,-0.12632 0.19579,-0.13263 0.30316,-0.38525 h 0.24631 q -0.22105,0.61893 -0.62525,0.93472 -0.40421,0.30947 -0.83367,0.30947 -0.29053,0 -0.56842,-0.1579 -0.27789,-0.1642 -0.41051,-0.46104 -0.13263,-0.30315 -0.13263,-0.92841 v -3.89045 h -0.91578 v -0.20842 q 0.34737,-0.13895 0.70736,-0.46736 0.36631,-0.33473 0.65051,-0.78946 0.14526,-0.24 0.40421,-0.87788 z" />
    <path
       id="path4704"
       style="font-style:normal;font-variant:normal;font-weight:normal;font-stretch:normal;font-family:'Times New Roman';-inkscape-font-specification:'Times New Roman, ';stroke-width:0.32336277;fill:#ffffff;fill-opacity:1"
       d="m 117.17653,125.81945 v 1.97049 h -0.20842 q -0.23999,-0.92841 -0.61893,-1.26314 -0.37263,-0.33473 -0.95367,-0.33473 -0.4421,0 -0.71367,0.23368 -0.27158,0.23368 -0.27158,0.51789 0,0.35367 0.2021,0.6063 0.19579,0.25894 0.79578,0.54947 l 0.92209,0.44841 q 1.28208,0.62525 1.28208,1.64839 0,0.78946 -0.59999,1.27577 -0.59367,0.47999 -1.33261,0.47999 -0.53051,0 -1.21261,-0.18947 -0.20841,-0.0632 -0.34104,-0.0632 -0.14526,0 -0.22737,0.16421 h -0.20842 v -2.06523 h 0.20842 q 0.17684,0.8842 0.67578,1.33261 0.49894,0.44842 1.11787,0.44842 0.43579,0 0.70736,-0.25263 0.27789,-0.25894 0.27789,-0.61894 0,-0.43578 -0.30947,-0.73262 -0.30315,-0.29683 -1.21892,-0.75156 -0.91578,-0.45473 -1.19998,-0.82104 -0.28421,-0.36 -0.28421,-0.90946 0,-0.71367 0.48631,-1.19366 0.49262,-0.47999 1.26945,-0.47999 0.34105,0 0.82735,0.14526 0.3221,0.0947 0.42947,0.0947 0.10105,0 0.15789,-0.0442 0.0568,-0.0442 0.13263,-0.19578 z" />
    <path
       id="path4706"
       style="font-style:normal;font-variant:normal;font-weight:normal;font-stretch:normal;font-family:'Times New Roman';-inkscape-font-specification:'Times New Roman, ';stroke-width:0.32336277;fill:#ffffff;fill-opacity:1"
       d="m 120.1449,124.08895 v 1.90102 h 1.35155 v 0.4421 h -1.35155 v 3.75151 q 0,0.5621 0.15789,0.75788 0.16421,0.19579 0.41684,0.19579 0.20841,0 0.4042,-0.12632 0.19578,-0.13263 0.30315,-0.38525 h 0.24631 q -0.22105,0.61893 -0.62525,0.93472 -0.4042,0.30947 -0.83367,0.30947 -0.29052,0 -0.56841,-0.1579 -0.27789,-0.1642 -0.41052,-0.46104 -0.13263,-0.30315 -0.13263,-0.92841 v -3.89045 h -0.91577 v -0.20842 q 0.34736,-0.13895 0.70735,-0.46736 0.36631,-0.33473 0.65052,-0.78946 0.14526,-0.24 0.4042,-0.87788 z" />
    <path
       id="path4708"
       style="font-style:normal;font-variant:normal;font-weight:normal;font-stretch:normal;font-family:'Times New Roman';-inkscape-font-specification:'Times New Roman, ';stroke-width:0.32336277;fill:#ffffff;fill-opacity:1"
       d="m 125.33007,130.94146 q -0.89051,0.68841 -1.11787,0.79578 -0.34105,0.15789 -0.72631,0.15789 -0.59999,0 -0.99156,-0.41052 -0.38526,-0.41052 -0.38526,-1.07998 0,-0.42315 0.18947,-0.73262 0.25895,-0.42947 0.89683,-0.80841 0.6442,-0.37894 2.1347,-0.92209 v -0.22736 q 0,-0.86525 -0.27789,-1.18735 -0.27157,-0.3221 -0.79578,-0.3221 -0.39788,0 -0.63156,0.21474 -0.24,0.21473 -0.24,0.49262 l 0.0126,0.36631 q 0,0.29052 -0.15157,0.44841 -0.14526,0.15789 -0.38526,0.15789 -0.23368,0 -0.38526,-0.1642 -0.14526,-0.16421 -0.14526,-0.44842 0,-0.54315 0.55578,-0.99788 0.55578,-0.45472 1.55998,-0.45472 0.77051,0 1.26313,0.25894 0.37263,0.19578 0.54947,0.61262 0.11368,0.27157 0.11368,1.11156 v 1.96418 q 0,0.82735 0.0316,1.01682 0.0316,0.18315 0.10105,0.24631 0.0758,0.0632 0.17052,0.0632 0.10105,0 0.17684,-0.0442 0.13263,-0.0821 0.51157,-0.46105 v 0.35368 q -0.70736,0.94735 -1.35156,0.94735 -0.30946,0 -0.49262,-0.21473 -0.18315,-0.21473 -0.18947,-0.73262 z m 0,-0.41052 v -2.20417 q -0.95367,0.37894 -1.23156,0.53683 -0.49894,0.27789 -0.71367,0.58105 -0.21473,0.30315 -0.21473,0.66314 0,0.45473 0.27157,0.75788 0.27158,0.29684 0.62525,0.29684 0.48,0 1.26314,-0.63157 z" />
    <path
       id="path4710"
       style="font-style:normal;font-variant:normal;font-weight:normal;font-stretch:normal;font-family:'Times New Roman';-inkscape-font-specification:'Times New Roman, ';stroke-width:0.32336277;fill:#ffffff;fill-opacity:1"
       d="m 129.33421,129.66569 q -0.53051,-0.25894 -0.81472,-0.71998 -0.28421,-0.46736 -0.28421,-1.02946 0,-0.85893 0.6442,-1.47787 0.65052,-0.61893 1.66103,-0.61893 0.82735,0 1.43366,0.4042 h 1.22524 q 0.27157,0 0.31578,0.0189 0.0442,0.0126 0.0632,0.0505 0.0379,0.0568 0.0379,0.2021 0,0.16421 -0.0316,0.22737 -0.0189,0.0316 -0.0695,0.0505 -0.0442,0.019 -0.31578,0.019 h -0.75157 q 0.35368,0.45473 0.35368,1.16209 0,0.8084 -0.61894,1.38313 -0.61893,0.57473 -1.66102,0.57473 -0.42947,0 -0.87788,-0.12632 -0.27789,0.24 -0.37894,0.42315 -0.0947,0.17684 -0.0947,0.30316 0,0.10736 0.10106,0.20841 0.10736,0.10105 0.41051,0.14526 0.17684,0.0253 0.8842,0.0442 1.30103,0.0316 1.68629,0.0884 0.58735,0.0821 0.93472,0.43578 0.35367,0.35368 0.35367,0.87157 0,0.71367 -0.66946,1.33892 -0.98524,0.92209 -2.57048,0.92209 -1.21892,0 -2.05891,-0.54946 -0.47368,-0.31579 -0.47368,-0.65683 0,-0.15158 0.0695,-0.30316 0.10736,-0.23368 0.44209,-0.65051 0.0442,-0.0568 0.6442,-0.68209 -0.32841,-0.19579 -0.46736,-0.34737 -0.13263,-0.15789 -0.13263,-0.35367 0,-0.22105 0.17684,-0.51789 0.18316,-0.29684 0.83367,-0.83999 z m 1.09893,-3.54309 q -0.46736,0 -0.78314,0.37262 -0.31579,0.37263 -0.31579,1.14314 0,0.99788 0.42947,1.54734 0.32841,0.41684 0.83367,0.41684 0.47999,0 0.78946,-0.36 0.30947,-0.35999 0.30947,-1.1305 0,-1.0042 -0.43579,-1.57261 -0.3221,-0.41683 -0.82735,-0.41683 z m -1.16208,5.65253 q -0.29684,0.3221 -0.44842,0.59999 -0.15157,0.27789 -0.15157,0.51157 0,0.30315 0.36631,0.53052 0.63156,0.39157 1.82523,0.39157 1.13682,0 1.67365,-0.4042 0.54315,-0.39789 0.54315,-0.85262 0,-0.32842 -0.3221,-0.46736 -0.32841,-0.13895 -1.30103,-0.16421 -1.42103,-0.0379 -2.18522,-0.14526 z" />
    <path
       id="path4712"
       style="font-style:normal;font-variant:normal;font-weight:normal;font-stretch:normal;font-family:'Times New Roman';-inkscape-font-specification:'Times New Roman, ';stroke-width:0.32336277;fill:#ffffff;fill-opacity:1"
       d="m 135.94041,127.04469 q 1.01683,-1.22524 1.93892,-1.22524 0.47367,0 0.81472,0.23999 0.34104,0.23368 0.54315,0.77683 0.13894,0.37894 0.13894,1.16209 v 2.46943 q 0,0.54946 0.0884,0.74525 0.0695,0.15789 0.22105,0.24631 0.15789,0.0884 0.57473,0.0884 v 0.22736 h -2.86101 v -0.22736 h 0.12 q 0.40421,0 0.5621,-0.12 0.1642,-0.12631 0.22736,-0.36631 0.0253,-0.0947 0.0253,-0.59367 v -2.36838 q 0,-0.78946 -0.20841,-1.14314 -0.2021,-0.36 -0.68841,-0.36 -0.75157,0 -1.49682,0.82104 v 3.05048 q 0,0.58735 0.0695,0.7263 0.0884,0.18315 0.24,0.27157 0.15789,0.0821 0.63157,0.0821 v 0.22736 h -2.861 v -0.22736 h 0.12631 q 0.4421,0 0.59367,-0.22105 0.15789,-0.22737 0.15789,-0.85893 v -2.14734 q 0,-1.04208 -0.0505,-1.26945 -0.0442,-0.22736 -0.14526,-0.30947 -0.0947,-0.0821 -0.25894,-0.0821 -0.17684,0 -0.42315,0.0947 l -0.0947,-0.22737 1.74313,-0.70735 h 0.27157 z" />
    <path
       id="path4714"
       style="font-style:normal;font-variant:normal;font-weight:normal;font-stretch:normal;font-family:'Times New Roman';-inkscape-font-specification:'Times New Roman, ';stroke-width:0.32336277;fill:#ffffff;fill-opacity:1"
       d="m 141.69399,128.16888 q -0.006,1.2884 0.62526,2.02102 0.63157,0.73261 1.48418,0.73261 0.56841,0 0.98525,-0.30946 0.42315,-0.31579 0.70735,-1.07367 l 0.19579,0.12631 q -0.13263,0.86525 -0.77051,1.57892 -0.63789,0.70736 -1.59787,0.70736 -1.04209,0 -1.78734,-0.80841 -0.73893,-0.81472 -0.73893,-2.18522 0,-1.48419 0.75788,-2.31154 0.7642,-0.83367 1.91365,-0.83367 0.97262,0 1.59787,0.6442 0.62525,0.63788 0.62525,1.71155 z m 0,-0.36631 h 2.67785 q -0.0316,-0.55578 -0.13263,-0.78315 -0.15789,-0.35367 -0.47367,-0.55578 -0.30947,-0.2021 -0.65052,-0.2021 -0.5242,0 -0.94103,0.41052 -0.41052,0.40421 -0.48,1.13051 z" />
    <path
       id="path4716"
       style="font-style:normal;font-variant:normal;font-weight:normal;font-stretch:normal;font-family:'Times New Roman';-inkscape-font-specification:'Times New Roman, ';stroke-width:0.32336277;fill:#ffffff;fill-opacity:1"
       d="m 148.1423,127.04469 q 1.01683,-1.22524 1.93892,-1.22524 0.47367,0 0.81472,0.23999 0.34105,0.23368 0.54315,0.77683 0.13894,0.37894 0.13894,1.16209 v 2.46943 q 0,0.54946 0.0884,0.74525 0.0695,0.15789 0.22105,0.24631 0.15789,0.0884 0.57473,0.0884 v 0.22736 h -2.861 v -0.22736 h 0.11999 q 0.40421,0 0.5621,-0.12 0.16421,-0.12631 0.22736,-0.36631 0.0253,-0.0947 0.0253,-0.59367 v -2.36838 q 0,-0.78946 -0.20842,-1.14314 -0.2021,-0.36 -0.68841,-0.36 -0.75156,0 -1.49682,0.82104 v 3.05048 q 0,0.58735 0.0695,0.7263 0.0884,0.18315 0.23999,0.27157 0.1579,0.0821 0.63157,0.0821 v 0.22736 h -2.861 v -0.22736 h 0.12631 q 0.4421,0 0.59368,-0.22105 0.15789,-0.22737 0.15789,-0.85893 v -2.14734 q 0,-1.04208 -0.0505,-1.26945 -0.0442,-0.22736 -0.14526,-0.30947 -0.0947,-0.0821 -0.25894,-0.0821 -0.17684,0 -0.42315,0.0947 l -0.0947,-0.22737 1.74313,-0.70735 h 0.27157 z" />
    <path
       id="path4718"
       style="font-style:normal;font-variant:normal;font-weight:normal;font-stretch:normal;font-family:'Times New Roman';-inkscape-font-specification:'Times New Roman, ';stroke-width:0.32336277;fill:#ffffff;fill-opacity:1"
       d="m 154.60324,124.08895 v 1.90102 h 1.35156 v 0.4421 h -1.35156 v 3.75151 q 0,0.5621 0.1579,0.75788 0.1642,0.19579 0.41683,0.19579 0.20842,0 0.4042,-0.12632 0.19579,-0.13263 0.30316,-0.38525 h 0.24631 q -0.22105,0.61893 -0.62525,0.93472 -0.40421,0.30947 -0.83367,0.30947 -0.29052,0 -0.56841,-0.1579 -0.27789,-0.1642 -0.41052,-0.46104 -0.13263,-0.30315 -0.13263,-0.92841 v -3.89045 h -0.91578 v -0.20842 q 0.34737,-0.13895 0.70736,-0.46736 0.36631,-0.33473 0.65051,-0.78946 0.14526,-0.24 0.40421,-0.87788 z" />
    <path
       id="path4720"
       style="font-style:normal;font-variant:normal;font-weight:normal;font-stretch:normal;font-family:'Times New Roman';-inkscape-font-specification:'Times New Roman, ';stroke-width:0.32336277;fill:#ffffff;fill-opacity:1"
       d="m 157.8874,125.80681 q 0.29052,0 0.49262,0.20211 0.20842,0.2021 0.20842,0.49262 0,0.29052 -0.20842,0.49894 -0.2021,0.2021 -0.49262,0.2021 -0.29052,0 -0.49894,-0.2021 -0.2021,-0.20842 -0.2021,-0.49894 0,-0.29052 0.2021,-0.49262 0.20842,-0.20211 0.49894,-0.20211 z m -0.8842,8.12197 v -0.27789 q 0.65052,-0.21474 1.0042,-0.66946 0.35999,-0.44842 0.35999,-0.95367 0,-0.12 -0.0568,-0.2021 -0.0442,-0.0568 -0.0884,-0.0568 -0.0695,0 -0.30315,0.12631 -0.11369,0.0568 -0.24,0.0568 -0.30947,0 -0.49262,-0.18315 -0.18316,-0.18316 -0.18316,-0.50526 0,-0.30947 0.23368,-0.53052 0.24,-0.22104 0.58105,-0.22104 0.41683,0 0.73893,0.3663 0.32842,0.36 0.32842,0.95999 0,0.65051 -0.45473,1.20629 -0.44842,0.5621 -1.42735,0.8842 z" />
    <path
       id="path4722"
       style="font-style:normal;font-variant:normal;font-weight:normal;font-stretch:normal;font-family:'Times New Roman';-inkscape-font-specification:'Times New Roman, ';stroke-width:0.32336277;fill:#ffffff;fill-opacity:1"
       d="m 164.79675,122.78792 q 0.27157,0 0.46104,0.18947 0.18947,0.18947 0.18947,0.46104 0,0.26526 -0.18947,0.45473 -0.18947,0.18947 -0.46104,0.18947 -0.26526,0 -0.45473,-0.18947 -0.18947,-0.18947 -0.18947,-0.45473 0,-0.27157 0.18947,-0.46104 0.18947,-0.18947 0.45473,-0.18947 z m 0.54315,3.03153 v 5.82305 q 0,1.48419 -0.63157,2.20417 -0.63157,0.71999 -1.64208,0.71999 -0.57472,0 -0.85261,-0.20842 -0.27789,-0.20841 -0.27789,-0.42946 0,-0.22105 0.15789,-0.37894 0.15157,-0.15789 0.35999,-0.15789 0.16421,0 0.33473,0.0821 0.10737,0.0442 0.41052,0.31578 0.30947,0.27789 0.51789,0.27789 0.15157,0 0.29683,-0.12 0.14526,-0.11368 0.21474,-0.39157 0.0695,-0.27157 0.0695,-1.18734 v -4.11783 q 0,-0.95367 -0.0568,-1.22524 -0.0442,-0.20842 -0.13895,-0.28421 -0.0947,-0.0821 -0.25894,-0.0821 -0.17684,0 -0.42947,0.0947 l -0.0884,-0.22737 1.74313,-0.70735 z" />
    <path
       id="path4724"
       style="font-style:normal;font-variant:normal;font-weight:normal;font-stretch:normal;font-family:'Times New Roman';-inkscape-font-specification:'Times New Roman, ';stroke-width:0.32336277;fill:#ffffff;fill-opacity:1"
       d="m 171.99031,125.98997 v 3.5052 q 0,1.00419 0.0442,1.23156 0.0505,0.22105 0.15158,0.30947 0.10736,0.0884 0.24631,0.0884 0.19579,0 0.4421,-0.10737 l 0.0884,0.22105 -1.7305,0.71367 h -0.28421 v -1.22524 q -0.74525,0.80841 -1.13682,1.01682 -0.39157,0.20842 -0.82735,0.20842 -0.48631,0 -0.8463,-0.27789 -0.35368,-0.28421 -0.49263,-0.7263 -0.13894,-0.4421 -0.13894,-1.25051 v -2.58311 q 0,-0.41052 -0.0884,-0.56841 -0.0884,-0.15789 -0.26526,-0.24 -0.17052,-0.0884 -0.62525,-0.0821 v -0.23368 h 2.02733 v 3.87151 q 0,0.80841 0.27789,1.06103 0.28421,0.25263 0.6821,0.25263 0.27157,0 0.61262,-0.17052 0.34736,-0.17052 0.82103,-0.65052 v -3.27783 q 0,-0.49263 -0.18315,-0.66315 -0.17684,-0.17684 -0.74525,-0.18947 v -0.23368 z" />
    <path
       id="path4726"
       style="font-style:normal;font-variant:normal;font-weight:normal;font-stretch:normal;font-family:'Times New Roman';-inkscape-font-specification:'Times New Roman, ';stroke-width:0.32336277;fill:#ffffff;fill-opacity:1"
       d="m 177.12496,125.81945 v 1.97049 h -0.20842 q -0.24,-0.92841 -0.61894,-1.26314 -0.37262,-0.33473 -0.95366,-0.33473 -0.4421,0 -0.71368,0.23368 -0.27157,0.23368 -0.27157,0.51789 0,0.35367 0.2021,0.6063 0.19579,0.25894 0.79578,0.54947 l 0.92209,0.44841 q 1.28208,0.62525 1.28208,1.64839 0,0.78946 -0.59999,1.27577 -0.59367,0.47999 -1.33261,0.47999 -0.53051,0 -1.21261,-0.18947 -0.20842,-0.0632 -0.34104,-0.0632 -0.14527,0 -0.22737,0.16421 h -0.20842 v -2.06523 h 0.20842 q 0.17684,0.8842 0.67578,1.33261 0.49894,0.44842 1.11787,0.44842 0.43579,0 0.70736,-0.25263 0.27789,-0.25894 0.27789,-0.61894 0,-0.43578 -0.30947,-0.73262 -0.30315,-0.29683 -1.21892,-0.75156 -0.91578,-0.45473 -1.19998,-0.82104 -0.28421,-0.36 -0.28421,-0.90946 0,-0.71367 0.48631,-1.19366 0.49262,-0.47999 1.26945,-0.47999 0.34105,0 0.82735,0.14526 0.3221,0.0947 0.42947,0.0947 0.10105,0 0.15789,-0.0442 0.0568,-0.0442 0.13263,-0.19578 z" />
    <path
       id="path4728"
       style="font-style:normal;font-variant:normal;font-weight:normal;font-stretch:normal;font-family:'Times New Roman';-inkscape-font-specification:'Times New Roman, ';stroke-width:0.32336277;fill:#ffffff;fill-opacity:1"
       d="m 180.09332,124.08895 v 1.90102 h 1.35156 v 0.4421 h -1.35156 v 3.75151 q 0,0.5621 0.15789,0.75788 0.16421,0.19579 0.41684,0.19579 0.20842,0 0.4042,-0.12632 0.19579,-0.13263 0.30315,-0.38525 h 0.24632 q -0.22105,0.61893 -0.62526,0.93472 -0.4042,0.30947 -0.83367,0.30947 -0.29052,0 -0.56841,-0.1579 -0.27789,-0.1642 -0.41052,-0.46104 -0.13263,-0.30315 -0.13263,-0.92841 v -3.89045 h -0.91577 v -0.20842 q 0.34736,-0.13895 0.70736,-0.46736 0.36631,-0.33473 0.65051,-0.78946 0.14526,-0.24 0.40421,-0.87788 z" />
    <path
       id="path4730"
       style="font-style:normal;font-variant:normal;font-weight:normal;font-stretch:normal;font-family:'Times New Roman';-inkscape-font-specification:'Times New Roman, ';stroke-width:0.32336277;fill:#ffffff;fill-opacity:1"
       d="m 188.06371,125.81945 q 1.31366,0 2.10944,0.99787 0.67578,0.85262 0.67578,1.95786 0,0.77683 -0.37263,1.57261 -0.37262,0.79577 -1.02945,1.19998 -0.65052,0.4042 -1.45261,0.4042 -1.30734,0 -2.07786,-1.04209 -0.65051,-0.87788 -0.65051,-1.97049 0,-0.79577 0.39157,-1.57892 0.39789,-0.78946 1.04209,-1.16208 0.6442,-0.37894 1.36418,-0.37894 z m -0.19578,0.41051 q -0.33473,0 -0.67578,0.20211 -0.33473,0.19578 -0.54315,0.69472 -0.20842,0.49894 -0.20842,1.28208 0,1.26314 0.49894,2.17891 0.50526,0.91578 1.3263,0.91578 0.61262,0 1.0105,-0.50526 0.39789,-0.50525 0.39789,-1.73681 0,-1.54102 -0.66314,-2.42522 -0.44842,-0.60631 -1.14314,-0.60631 z" />
    <path
       id="path4732"
       style="font-style:normal;font-variant:normal;font-weight:normal;font-stretch:normal;font-family:'Times New Roman';-inkscape-font-specification:'Times New Roman, ';stroke-width:0.32336277;fill:#ffffff;fill-opacity:1"
       d="m 191.40471,125.98997 h 2.72205 v 0.23368 h -0.17683 q -0.24632,0 -0.37895,0.12 -0.12631,0.11999 -0.12631,0.3221 0,0.22105 0.13263,0.5242 l 1.34524,3.19573 1.35156,-3.31573 q 0.14526,-0.35368 0.14526,-0.53683 0,-0.0884 -0.0505,-0.14526 -0.0695,-0.0947 -0.17684,-0.12632 -0.10736,-0.0379 -0.43578,-0.0379 v -0.23368 h 1.88839 v 0.23368 q -0.32842,0.0253 -0.45473,0.13263 -0.22105,0.18947 -0.39789,0.63157 l -2.05259,4.96412 h -0.25895 l -2.06522,-4.88202 q -0.13895,-0.34105 -0.26526,-0.48631 -0.12632,-0.15157 -0.3221,-0.25262 -0.10737,-0.0568 -0.42315,-0.10737 z" />
    <path
       id="path4734"
       style="font-style:normal;font-variant:normal;font-weight:normal;font-stretch:normal;font-family:'Times New Roman';-inkscape-font-specification:'Times New Roman, ';stroke-width:0.32336277;fill:#ffffff;fill-opacity:1"
       d="m 199.14141,128.16888 q -0.006,1.2884 0.62526,2.02102 0.63156,0.73261 1.48418,0.73261 0.56841,0 0.98525,-0.30946 0.42315,-0.31579 0.70735,-1.07367 l 0.19579,0.12631 q -0.13263,0.86525 -0.77051,1.57892 -0.63789,0.70736 -1.59787,0.70736 -1.04209,0 -1.78734,-0.80841 -0.73893,-0.81472 -0.73893,-2.18522 0,-1.48419 0.75788,-2.31154 0.7642,-0.83367 1.91365,-0.83367 0.97261,0 1.59787,0.6442 0.62525,0.63788 0.62525,1.71155 z m 0,-0.36631 h 2.67785 q -0.0316,-0.55578 -0.13263,-0.78315 -0.15789,-0.35367 -0.47367,-0.55578 -0.30947,-0.2021 -0.65052,-0.2021 -0.5242,0 -0.94104,0.41052 -0.41051,0.40421 -0.47999,1.13051 z" />
    <path
       id="path4736"
       style="font-style:normal;font-variant:normal;font-weight:normal;font-stretch:normal;font-family:'Times New Roman';-inkscape-font-specification:'Times New Roman, ';stroke-width:0.32336277;fill:#ffffff;fill-opacity:1"
       d="m 205.59603,125.81945 v 1.30103 q 0.72631,-1.30103 1.49051,-1.30103 0.34736,0 0.57472,0.21473 0.22737,0.20842 0.22737,0.48631 0,0.24631 -0.16421,0.41683 -0.16421,0.17052 -0.39157,0.17052 -0.22105,0 -0.49894,-0.21473 -0.27158,-0.22105 -0.40421,-0.22105 -0.11368,0 -0.24631,0.12632 -0.2842,0.25894 -0.58736,0.85261 v 2.77259 q 0,0.47999 0.12,0.7263 0.0821,0.17052 0.29052,0.2842 0.20842,0.11369 0.59999,0.11369 v 0.22736 h -2.96205 v -0.22736 q 0.4421,0 0.65683,-0.13895 0.15789,-0.10105 0.22105,-0.3221 0.0316,-0.10736 0.0316,-0.61262 v -2.24206 q 0,-1.01051 -0.0442,-1.19998 -0.0379,-0.19579 -0.15158,-0.28421 -0.10736,-0.0884 -0.27157,-0.0884 -0.19579,0 -0.4421,0.0947 l -0.0632,-0.22737 1.74945,-0.70735 z" />
    <path
       id="path4738"
       style="font-style:normal;font-variant:normal;font-weight:normal;font-stretch:normal;font-family:'Times New Roman';-inkscape-font-specification:'Times New Roman, ';stroke-width:0.32336277;fill:#ffffff;fill-opacity:1"
       d="m 210.48438,126.4447 v 3.80204 q 0,0.8084 0.17684,1.02314 0.23368,0.27789 0.62525,0.27789 h 0.5242 v 0.22736 h -3.45468 v -0.22736 h 0.25895 q 0.25262,0 0.46104,-0.12632 0.20842,-0.12631 0.28421,-0.34104 0.0821,-0.21474 0.0821,-0.83367 v -3.80204 h -1.12419 v -0.45473 h 1.12419 v -0.37894 q 0,-0.86525 0.27789,-1.46524 0.27789,-0.59999 0.8463,-0.9663 0.57473,-0.37262 1.2884,-0.37262 0.66315,0 1.21893,0.42946 0.36631,0.28421 0.36631,0.63789 0,0.18947 -0.16421,0.35999 -0.16421,0.16421 -0.35368,0.16421 -0.14526,0 -0.30947,-0.10105 -0.15789,-0.10737 -0.39157,-0.44842 -0.23368,-0.34736 -0.42947,-0.46736 -0.19578,-0.11999 -0.43578,-0.11999 -0.29052,0 -0.49262,0.15789 -0.2021,0.15157 -0.29052,0.47999 -0.0884,0.3221 -0.0884,1.67365 v 0.41684 h 1.4905 v 0.45473 z" />
    <path
       id="path4740"
       style="font-style:normal;font-variant:normal;font-weight:normal;font-stretch:normal;font-family:'Times New Roman';-inkscape-font-specification:'Times New Roman, ';stroke-width:0.32336277;fill:#ffffff;fill-opacity:1"
       d="m 214.01484,122.79424 q 0.26526,0 0.44841,0.18947 0.18947,0.18315 0.18947,0.44841 0,0.26526 -0.18947,0.45473 -0.18315,0.18947 -0.44841,0.18947 -0.26526,0 -0.45473,-0.18947 -0.18947,-0.18947 -0.18947,-0.45473 0,-0.26526 0.18316,-0.44841 0.18947,-0.18947 0.46104,-0.18947 z m 0.5242,3.02521 v 4.64834 q 0,0.54314 0.0758,0.7263 0.0821,0.17684 0.23368,0.26526 0.15789,0.0884 0.56841,0.0884 v 0.22736 h -2.81048 v -0.22736 q 0.42315,0 0.56842,-0.0821 0.14526,-0.0821 0.22736,-0.27157 0.0884,-0.18947 0.0884,-0.7263 v -2.22944 q 0,-0.94104 -0.0568,-1.21893 -0.0442,-0.2021 -0.13895,-0.27789 -0.0947,-0.0821 -0.25894,-0.0821 -0.17684,0 -0.42947,0.0947 l -0.0884,-0.22737 1.74313,-0.70735 z" />
    <path
       id="path4742"
       style="font-style:normal;font-variant:normal;font-weight:normal;font-stretch:normal;font-family:'Times New Roman';-inkscape-font-specification:'Times New Roman, ';stroke-width:0.32336277;fill:#ffffff;fill-opacity:1"
       d="m 217.81056,124.08895 v 1.90102 h 1.35156 v 0.4421 h -1.35156 v 3.75151 q 0,0.5621 0.15789,0.75788 0.16421,0.19579 0.41684,0.19579 0.20842,0 0.4042,-0.12632 0.19579,-0.13263 0.30315,-0.38525 h 0.24632 q -0.22105,0.61893 -0.62526,0.93472 -0.4042,0.30947 -0.83367,0.30947 -0.29052,0 -0.56841,-0.1579 -0.27789,-0.1642 -0.41052,-0.46104 -0.13263,-0.30315 -0.13263,-0.92841 v -3.89045 h -0.91577 v -0.20842 q 0.34736,-0.13895 0.70736,-0.46736 0.36631,-0.33473 0.65051,-0.78946 0.14526,-0.24 0.40421,-0.87788 z" />
    <path
       id="path4744"
       style="font-style:normal;font-variant:normal;font-weight:normal;font-stretch:normal;font-family:'Times New Roman';-inkscape-font-specification:'Times New Roman, ';stroke-width:0.32336277;fill:#ffffff;fill-opacity:1"
       d="m 221.39787,124.08895 v 1.90102 h 1.35156 v 0.4421 h -1.35156 v 3.75151 q 0,0.5621 0.15789,0.75788 0.16421,0.19579 0.41684,0.19579 0.20842,0 0.4042,-0.12632 0.19579,-0.13263 0.30315,-0.38525 h 0.24632 q -0.22105,0.61893 -0.62526,0.93472 -0.4042,0.30947 -0.83367,0.30947 -0.29052,0 -0.56841,-0.1579 -0.27789,-0.1642 -0.41052,-0.46104 -0.13263,-0.30315 -0.13263,-0.92841 v -3.89045 h -0.91577 v -0.20842 q 0.34736,-0.13895 0.70736,-0.46736 0.36631,-0.33473 0.65051,-0.78946 0.14526,-0.24 0.40421,-0.87788 z" />
    <path
       id="path4746"
       style="font-style:normal;font-variant:normal;font-weight:normal;font-stretch:normal;font-family:'Times New Roman';-inkscape-font-specification:'Times New Roman, ';stroke-width:0.32336277;fill:#ffffff;fill-opacity:1"
       d="m 224.27781,128.16888 q -0.006,1.2884 0.62525,2.02102 0.63157,0.73261 1.48419,0.73261 0.56841,0 0.98524,-0.30946 0.42315,-0.31579 0.70736,-1.07367 l 0.19579,0.12631 q -0.13263,0.86525 -0.77052,1.57892 -0.63788,0.70736 -1.59786,0.70736 -1.04209,0 -1.78734,-0.80841 -0.73894,-0.81472 -0.73894,-2.18522 0,-1.48419 0.75789,-2.31154 0.76419,-0.83367 1.91365,-0.83367 0.97261,0 1.59786,0.6442 0.62526,0.63788 0.62526,1.71155 z m 0,-0.36631 h 2.67785 q -0.0316,-0.55578 -0.13263,-0.78315 -0.15789,-0.35367 -0.47368,-0.55578 -0.30946,-0.2021 -0.65051,-0.2021 -0.5242,0 -0.94104,0.41052 -0.41052,0.40421 -0.47999,1.13051 z" />
    <path
       id="path4748"
       style="font-style:normal;font-variant:normal;font-weight:normal;font-stretch:normal;font-family:'Times New Roman';-inkscape-font-specification:'Times New Roman, ';stroke-width:0.32336277;fill:#ffffff;fill-opacity:1"
       d="m 233.12609,131.12462 q -0.42315,0.44209 -0.82735,0.63788 -0.40421,0.18947 -0.87157,0.18947 -0.94735,0 -1.6547,-0.78946 -0.70736,-0.79578 -0.70736,-2.03996 0,-1.24419 0.78314,-2.27365 0.78315,-1.03577 2.01471,-1.03577 0.76419,0 1.26313,0.48631 v -1.06735 q 0,-0.99156 -0.0505,-1.21893 -0.0442,-0.22736 -0.14527,-0.30947 -0.10105,-0.0821 -0.25262,-0.0821 -0.16421,0 -0.43578,0.10105 l -0.0821,-0.22105 1.72418,-0.70735 h 0.28421 v 6.6883 q 0,1.01682 0.0442,1.24419 0.0505,0.22105 0.15157,0.30947 0.10737,0.0884 0.24632,0.0884 0.17052,0 0.45472,-0.10737 l 0.0695,0.22105 -1.71787,0.71367 h -0.29052 z m 0,-0.4421 v -2.981 q -0.0379,-0.42947 -0.22736,-0.78315 -0.18947,-0.35367 -0.50526,-0.53051 -0.30947,-0.18316 -0.6063,-0.18316 -0.55578,0 -0.99156,0.49894 -0.57473,0.65683 -0.57473,1.91997 0,1.27576 0.55578,1.95786 0.55578,0.67578 1.23787,0.67578 0.57473,0 1.11156,-0.57473 z" />
    <path
       id="path4750"
       style="font-style:normal;font-variant:normal;font-weight:normal;font-stretch:normal;font-family:'Times New Roman';-inkscape-font-specification:'Times New Roman, ';stroke-width:0.32336277;fill:#ffffff;fill-opacity:1"
       d="m 236.71971,130.54989 q 0.29684,0 0.49894,0.20842 0.2021,0.2021 0.2021,0.49262 0,0.29052 -0.20842,0.49894 -0.2021,0.2021 -0.49262,0.2021 -0.29052,0 -0.49894,-0.2021 -0.2021,-0.20842 -0.2021,-0.49894 0,-0.29684 0.2021,-0.49894 0.20842,-0.2021 0.49894,-0.2021 z" />
  </g>
</svg>
