<?xml version="1.0" encoding="UTF-8" standalone="no"?>
<svg
   xmlns:dc="http://purl.org/dc/elements/1.1/"
   xmlns:cc="http://creativecommons.org/ns#"
   xmlns:rdf="http://www.w3.org/1999/02/22-rdf-syntax-ns#"
   xmlns:svg="http://www.w3.org/2000/svg"
   xmlns="http://www.w3.org/2000/svg"
   viewBox="0 0 743.74615 889.82825"
   height="889.82825"
   width="743.74615"
   id="svg1865"
   version="1.1">
  <metadata
     id="metadata1871">
    <rdf:RDF>
      <cc:Work
         rdf:about="">
        <dc:format>image/svg+xml</dc:format>
        <dc:type
           rdf:resource="http://purl.org/dc/dcmitype/StillImage" />
        <dc:title></dc:title>
      </cc:Work>
    </rdf:RDF>
  </metadata>
  <defs
     id="defs1869" />
  <path
     style="fill:#eedca1;stroke-width:0.30000001"
     d="m 69.72822,889.01056 c -0.8039,-0.9917 -7.3789,-14.15024 -10.2404,-20.49386 -19.6073,-43.46787 -35.7207,-96.81594 -45.8012,-151.63848 -5.6968,-30.9822 -9.535,-61.44207 -11.832,-93.9 -2.5819,-36.48258 -2.4537,-94.06164 0.295,-132.6 4.6655,-65.41019 16.4692,-134.17253 34.6325,-201.74999 2.2694,-8.44343 6.8149,-22.30677 12.2954,-37.5 37.7319,-104.60192 83.0475,-169.563078 143.7184,-206.024154 26.17,-15.72725 55.4765,-26.89056 95.3857,-36.33389 26.6393,-6.30341 35.2341,-7.66832 53.1,-8.43257 18.7047,-0.80014 39.9614,-0.1526 54.9,1.67242 54.2254,6.62462 105.3888,26.72359 143.4,56.3331 24.5294,19.107686 43.2406,41.432416 56.2264,67.085094 10.938,21.60725 17.0598,43.19622 19.7359,69.6 0.7739,7.63523 0.769,31.53793 -0.01,39.9 -1.9287,20.75332 -6.6439,44.68746 -11.3238,57.47935 -15.2958,41.80895 -43.6211,81.36608 -84.2804,117.69983 -17.0639,15.24849 -37.5997,30.63255 -55.35,41.46446 -2.64,1.61103 -5.0458,3.10401 -5.3462,3.31773 -0.4962,0.35301 -0.1251,0.7557 4.05,4.39428 22.6548,19.74405 48.6308,48.38646 70.5068,77.74434 9.244,12.40545 21.5988,30.61557 29.4113,43.35 50.0162,81.52728 78.655,170.60568 85.2622,265.2 0.8526,12.20691 1.1507,20.21859 1.1831,31.8 l 0.033,11.70004 -99.0812,0.075 -99.0812,0.075 -0.2717,-0.6755 c -0.1494,-0.3715 -0.4231,-2.90294 -0.6082,-5.62544 -0.9034,-13.28946 -2.7067,-32.85252 -4.6733,-50.7 -13.9993,-127.04109 -41.6978,-209.03622 -81.1345,-240.18015 -6.9546,-5.49207 -14.4456,-9.48228 -23.25,-12.38442 -37.3384,-12.30747 -71.161,-11.99559 -96.9718,0.89424 -7.6916,3.84114 -13.8762,8.31849 -20.0308,14.50125 -10.8881,10.93785 -18.3281,25.47456 -21.7279,42.45318 -1.6165,8.07276 -2.113,14.87253 -2.1152,28.9659 0,20.61342 1.9725,39.89055 6.6259,64.65 8.3778,44.5761 25.8289,100.22496 46.9587,149.74401 1.8761,4.39671 3.4111,8.21043 3.4111,8.47503 0,0.4403 -7.9243,0.4805 -93.675,0.4752 l -93.675,-0.01 -0.6534,-0.8061 z m 372.0534,-548.91205 c 7.0905,-1.12458 13.5105,-3.15729 18.9593,-6.00279 8.7304,-4.55937 14.0391,-10.07601 19.786,-20.56107 14.7077,-26.83361 16.0166,-63.98682 3.5672,-101.25642 -9.8114,-29.37226 -25.872,-52.66112 -43.7075,-63.37878 -11.903,-7.15264 -26.042,-11.57454 -44.055,-13.77793 -6.2772,-0.76784 -23.9143,-0.76719 -30.9,0.001 -29.939,3.2928 -56.9292,14.23375 -79.3921,32.18289 -7.3566,5.87837 -15.7611,14.15149 -19.0907,18.79233 -7.9359,11.0609 -9.6687,25.06318 -4.985,40.28035 7.936,25.78332 33.9949,55.34037 69.5678,78.9063 30.3507,20.10639 62.1873,32.60958 89.7,35.22774 4.2854,0.40779 16.9819,0.15219 20.55,-0.41376 z M 733.83159,498.4256 c -52.45477,-50.18004 -103.87647,-81.1919 -162.44697,-97.97 -2.9928,-0.85734 -4.525,-1.43688 -4.581,-1.73277 -0.046,-0.24453 1.8193,-2.7396 4.1456,-5.5446 31.5614,-38.05479 49.8086,-72.40509 59.6814,-112.35 3.4163,-13.82247 7.4379,-38.12049 8.5841,-51.86467 0.2884,-3.45776 0.406,-3.5601 2.9784,-2.59191 2.997,1.12798 8.5292,3.9621 11.9998,6.14749 26.2655,16.53887 50.6571,53.24611 67.9836,102.30909 10.29247,29.14509 17.6476,62.91444 20.32123,93.3 1.19595,13.59174 1.5912,34.65248 0.92898,49.49999 -0.57795,12.95874 -2.09949,26.47803 -2.99514,26.61291 -0.2475,0.0373 -3.2175,-2.57973 -6.6,-5.81553 z"
     id="path6139" />
  <path
     style="fill:#ebc95e;stroke-width:0.30000001"
     d="m 69.84022,889.06566 c -1.5732,-2.16124 -9.2196,-18.05848 -13.7741,-28.63744 -29.7383,-69.07314 -48.7949,-154.34082 -54.5433,-244.05 -1.6672,-26.01858 -1.9318,-74.30154 -0.5705,-104.1 3.215,-70.37579 15.9887,-149.78933 36.0226,-223.94999 4.3383,-16.05958 15.9103,-48.51803 25.6521,-71.95219 21.4615,-51.62621 44.3812,-90.49533 72.1147,-122.297808 4.7596,-5.458 19.0571,-19.68652 24.4412,-24.323396 24.012,-20.67947 49.8011,-35.62612 80.5063,-46.65912 2.7458,-0.98663 5.4649,-1.97472 6.0424,-2.19577 2.0745,-0.79408 14.6747,-4.67691 20.85,-6.42506 15.6433,-4.42849 42.8172,-10.70388 52.05,-12.02018 18.1978,-2.59443 43.5053,-3.17494 65.85,-1.51051 28.6032,2.13063 61.7501,9.82161 89.6276,20.79602 66.6846,26.25139 113.1798,71.694406 132.2408,129.247964 6.2182,18.77575 9.3684,37.96955 9.7884,59.64005 0.3976,20.51049 -1.8401,40.89878 -6.9637,63.45 -2.0028,8.81481 -3.2237,13.14443 -5.3665,19.03027 -18.1256,49.7885 -57.3265,98.81516 -111.3266,139.23083 -10.9135,8.16801 -21.8193,15.54683 -31.2821,21.1652 -1.3651,0.81054 -2.4451,1.62144 -2.4,1.80204 0.045,0.1806 1.6223,1.65705 3.5048,3.28101 20.4952,17.68017 44.4486,43.54518 65.2567,70.46439 52.6325,68.09013 89.9474,147.40017 108.2729,230.12625 8.6776,39.1731 13.091,76.84143 13.8911,118.56141 0.1609,8.3877 0.1234,10.65683 -0.1822,11.02503 -0.3456,0.4164 -10.4168,0.4631 -98.973,0.459 -54.2235,0 -98.7518,-0.1086 -98.9518,-0.2357 -0.2284,-0.1451 -0.4836,-1.7886 -0.6864,-4.42039 -3.2165,-41.73321 -7.3275,-77.5539 -12.6175,-109.93935 -13.3345,-81.63516 -33.6429,-138.88032 -60.2917,-169.95 -5.7732,-6.73101 -14.4258,-14.2779 -20.7401,-18.09 -11.3354,-6.84327 -31.6175,-12.75927 -52.3007,-15.25527 -6.3473,-0.76599 -23.724,-0.7716 -29.4,-0.01 -21.6081,2.90121 -38.2549,10.61184 -51.221,23.72505 -10.4814,10.60041 -17.6558,24.38217 -21.333,40.97973 -1.8357,8.28627 -2.4273,15.79539 -2.4225,30.75 0,14.00469 0.6098,23.18337 2.5412,38.5299 5.1313,40.77252 18.2322,90.1077 37.846,142.5201 4.251,11.35959 9.5727,24.6603 13.4437,33.6 1.6789,3.8775 3.123,7.35373 3.2091,7.72503 l 0.1564,0.675 -93.71,-0.01 -93.7099,-0.01 -0.5414,-0.7437 z m 369.3914,-548.57181 c 12.3269,-1.30893 22.8737,-5.66997 31.132,-12.87294 6.8097,-5.93943 14.4932,-20.17314 18.2097,-33.73362 2.7291,-9.95782 3.7449,-17.41581 3.9648,-29.10906 0.1753,-9.32734 -0.2018,-15.70733 -1.4098,-23.85 -4.6448,-31.30692 -18.5334,-61.9102 -36.7438,-80.96421 -13.5271,-14.15369 -34.5571,-22.81634 -61.3529,-25.27242 -5.8033,-0.53192 -19.7356,-0.4479 -25.8,0.1556 -32.1141,3.19579 -60.102,14.68085 -83.7,34.34694 -4.3429,3.61925 -12.707,11.78599 -15.0451,14.69003 -9.1883,11.41226 -11.5675,25.52065 -6.9758,41.36544 3.7189,12.83327 11.5784,26.16507 23.9224,40.57862 3.8772,4.52719 15.1901,15.71386 20.4485,20.22025 24.7505,21.21113 53.4326,37.78331 81.5861,47.13944 19.5437,6.49488 36.6562,8.91012 51.7639,7.30593 z m 296.18997,158.99936 c -17.61057,-17.18331 -38.08897,-34.2621 -57.45137,-47.91393 -33.2516,-23.4446 -68.7226,-40.67876 -105.0886,-51.05894 -2.97,-0.84774 -5.5167,-1.65366 -5.6592,-1.79094 -0.1426,-0.13725 1.4177,-2.25243 3.4673,-4.70037 26.7729,-31.97616 44.584,-62.66292 55.0822,-94.9008 6.1985,-19.03463 10.4727,-40.19146 13.3827,-66.24358 0.3928,-3.51646 0.8025,-6.48199 0.9106,-6.59006 0.6386,-0.63856 9.6655,3.741 15.1664,7.35825 5.9013,3.88054 9.6554,7.00594 15.9298,13.26193 5.7274,5.71062 9.5139,10.06847 14.1999,16.34257 28.664,38.3782 50.32121,100.47442 56.56016,162.17089 1.40655,13.90935 1.63785,18.79005 1.64919,34.79999 0.0105,14.75655 -0.13476,18.59376 -1.06704,28.2 -0.5766,5.94132 -1.81908,15.15003 -2.08053,15.42 -0.15207,0.15702 -2.24493,-1.66533 -5.00151,-4.35501 z"
     id="path6137" />
  <path
     style="fill:#a0a0a0;stroke-width:0.30000001"
     d="m 69.84022,889.06566 c -1.5732,-2.16124 -9.2196,-18.05848 -13.7741,-28.63744 -29.7383,-69.07314 -48.7949,-154.34082 -54.5433,-244.05 -1.6672,-26.01858 -1.9318,-74.30154 -0.5705,-104.1 3.215,-70.37579 15.9887,-149.78933 36.0226,-223.94999 4.3383,-16.05958 15.9103,-48.51803 25.6521,-71.95219 21.4615,-51.62621 44.3812,-90.49533 72.1147,-122.297808 4.7596,-5.458 19.0571,-19.68652 24.4412,-24.323396 24.012,-20.67947 49.8011,-35.62612 80.5063,-46.65912 2.7458,-0.98663 5.4649,-1.97472 6.0424,-2.19577 2.0745,-0.79408 14.6747,-4.67691 20.85,-6.42506 15.6433,-4.42849 42.8172,-10.70388 52.05,-12.02018 18.1978,-2.59443 43.5053,-3.17494 65.85,-1.51051 28.6032,2.13063 61.7501,9.82161 89.6276,20.79602 66.6846,26.25139 113.1798,71.694406 132.2408,129.247964 6.2182,18.77575 9.3684,37.96955 9.7884,59.64005 0.3976,20.51049 -1.8401,40.89878 -6.9637,63.45 -2.0028,8.81481 -3.2237,13.14443 -5.3665,19.03027 -18.1256,49.7885 -57.3265,98.81516 -111.3266,139.23083 -10.9135,8.16801 -21.8193,15.54683 -31.2821,21.1652 -1.3651,0.81054 -2.4451,1.62144 -2.4,1.80204 0.045,0.1806 1.6223,1.65705 3.5048,3.28101 20.4952,17.68017 44.4486,43.54518 65.2567,70.46439 52.6325,68.09013 89.9474,147.40017 108.2729,230.12625 8.6776,39.1731 13.091,76.84143 13.8911,118.56141 0.1609,8.3877 0.1234,10.65683 -0.1822,11.02503 -0.3456,0.4164 -10.4168,0.4631 -98.973,0.459 -54.2235,0 -98.7518,-0.1086 -98.9518,-0.2357 -0.2284,-0.1451 -0.4836,-1.7886 -0.6864,-4.42039 -3.2165,-41.73321 -7.3275,-77.5539 -12.6175,-109.93935 -13.3345,-81.63516 -33.6429,-138.88032 -60.2917,-169.95 -5.7732,-6.73101 -14.4258,-14.2779 -20.7401,-18.09 -11.3354,-6.84327 -31.6175,-12.75927 -52.3007,-15.25527 -6.3473,-0.76599 -23.724,-0.7716 -29.4,-0.01 -21.6081,2.90121 -38.2549,10.61184 -51.221,23.72505 -10.4814,10.60041 -17.6558,24.38217 -21.333,40.97973 -1.8357,8.28627 -2.4273,15.79539 -2.4225,30.75 0,14.00469 0.6098,23.18337 2.5412,38.5299 5.1313,40.77252 18.2322,90.1077 37.846,142.5201 4.251,11.35959 9.5727,24.6603 13.4437,33.6 1.6789,3.8775 3.123,7.35373 3.2091,7.72503 l 0.1564,0.675 -93.71,-0.01 -93.7099,-0.01 -0.5414,-0.7437 z m 369.3914,-548.57181 c 12.3269,-1.30893 22.8737,-5.66997 31.132,-12.87294 6.8097,-5.93943 14.4932,-20.17314 18.2097,-33.73362 2.7291,-9.95782 3.7449,-17.41581 3.9648,-29.10906 0.1753,-9.32734 -0.2018,-15.70733 -1.4098,-23.85 -4.6448,-31.30692 -18.5334,-61.9102 -36.7438,-80.96421 -13.5271,-14.15369 -34.5571,-22.81634 -61.3529,-25.27242 -5.8033,-0.53192 -19.7356,-0.4479 -25.8,0.1556 -32.1141,3.19579 -60.102,14.68085 -83.7,34.34694 -4.3429,3.61925 -12.707,11.78599 -15.0451,14.69003 -9.1883,11.41226 -11.5675,25.52065 -6.9758,41.36544 3.7189,12.83327 11.5784,26.16507 23.9224,40.57862 3.8772,4.52719 15.1901,15.71386 20.4485,20.22025 24.7505,21.21113 53.4326,37.78331 81.5861,47.13944 19.5437,6.49488 36.6562,8.91012 51.7639,7.30593 z m 294.44997,156.85586 c -41.04877,-39.14325 -80.99287,-66.22613 -124.64097,-84.50903 -12.1077,-5.07153 -29.2577,-10.96923 -40.1591,-13.81026 -0.8381,-0.21843 -1.2482,-0.474 -1.1541,-0.71925 0.08,-0.20925 1.9176,-2.50755 4.0829,-5.10738 17.5301,-21.04812 32.3713,-43.50147 42.0188,-63.57051 13.6388,-28.37169 21.156,-56.6304 25.6189,-96.30672 0.4053,-3.60342 0.8101,-6.62482 0.8995,-6.71422 0.4191,-0.41916 9.3585,3.86205 13.3841,6.40988 14.9252,9.4463 29.1519,25.15757 42.2022,46.60601 20.0779,32.99856 35.98476,79.46913 43.1298,126 1.70244,11.08695 3.23124,25.28208 3.651,33.9 0.10848,2.2275 0.34794,4.23951 0.53211,4.47111 0.50904,0.64014 0.47031,32.56343 -0.0401,33.07388 -0.2094,0.2094 -0.37575,1.11024 -0.37671,2.04 -0.004,4.1142 -2.13219,23.59401 -2.62641,24.04266 -0.12204,0.11076 -3.05688,-2.502 -6.52188,-5.80617 z"
     id="path6135" />
  <path
     style="fill:#f4be14;stroke-width:0.30000001"
     d="m 69.75222,888.40326 c -1.3942,-2.37556 -7.4203,-14.59912 -9.8722,-20.02504 -28.5436,-63.16614 -48.5232,-143.808 -56.0798,-226.35 -2.3019,-25.14414 -3.3785,-46.87929 -3.6629,-73.95 -0.8361,-79.58985 8.7373,-162.00647 28.5402,-245.69999 5.2587,-22.22475 9.6543,-38.56662 13.355,-49.65 26.4964,-79.35623 56.0447,-136.1735 92.6455,-178.144128 5.1705,-5.92899 17.8015,-18.63003 23.3036,-23.432556 16.3334,-14.25694 31.9866,-24.86489 50.7,-34.35856 25.4175,-12.89483 52.7435,-21.86761 94.5239,-31.03793 13.457,-2.95366 19.7684,-3.88585 34.0261,-5.02565 8.0333,-0.64221 31.6378,-0.73759 39.45,-0.15941 36.5749,2.70695 67.0638,9.47577 98.25,21.81242 55.9322,22.12576 98.0907,58.380536 120.9211,103.987974 11.0935,22.16105 17.0673,44.11666 19.5379,71.80784 0.5867,6.57467 0.4913,27.68332 -0.1592,35.25 -1.7049,19.83211 -6.3403,44.47181 -10.6988,56.87023 -15.4891,44.06123 -46.8142,87.04604 -91.0236,124.90424 -15.8687,13.58892 -34.6331,27.30243 -50.4997,36.90638 -2.5148,1.52217 -4.635,2.86908 -4.7116,2.9931 -0.077,0.12402 2.2508,2.32083 5.1722,4.88175 31.8214,27.89481 65.9252,68.39247 92.9229,110.34429 49.2998,76.60713 79.7957,162.25806 89.5106,251.4 1.1241,10.31391 1.9855,20.45691 2.5607,30.15 0.584,9.84288 1.1368,27.74214 1.0145,32.85 l -0.097,4.05004 -98.6846,0.075 c -54.2765,0.041 -98.7939,-0.034 -98.9276,-0.1677 -0.1336,-0.1336 -0.5781,-4.48756 -0.9877,-9.6754 -11.5245,-145.97149 -38.182,-241.19299 -78.6684,-281.00581 -12.0348,-11.83446 -23.0237,-17.4591 -44.6317,-22.84458 -19.8364,-4.94388 -39.4452,-6.16464 -56.1,-3.49254 -26.4992,4.25154 -47.1382,17.87229 -59.1935,39.06489 -5.683,9.99024 -9.7297,22.78431 -11.0158,34.82718 -1.6283,15.24801 -1.1878,35.30943 1.2335,56.16852 6.0377,52.01343 25.9407,120.13524 54.2338,185.62504 l 1.0692,2.475 h -93.5601 -93.5601 z m 369.1794,-547.60395 c 15.9199,-1.51434 30.0933,-8.86803 37.1425,-19.27095 9.1361,-13.48269 14.1753,-27.76016 16.324,-46.25013 0.5169,-4.44799 0.5109,-21.9309 -0.01,-26.7 -2.9791,-27.32158 -11.8218,-52.59261 -25.7187,-73.5 -7.4345,-11.18496 -15.1872,-19.3503 -23.8388,-25.10767 -3.9612,-2.63606 -11.9081,-6.60624 -16.9118,-8.44892 -28.1618,-10.37114 -63.5299,-10.05094 -95.2882,0.86267 -18.01,6.18906 -34.406,15.55089 -48.6445,27.77525 -5.0039,4.29601 -12.4997,11.85321 -14.818,14.93918 -10.9048,14.51623 -10.9127,33.70622 -0.023,54.77949 4.24,8.20464 10.266,16.98714 17.2907,25.2 6.6009,7.71728 19.2883,19.81675 28.4966,27.17608 25.0834,20.04686 55.0288,35.93918 82.1979,43.62335 16.4883,4.66332 30.2543,6.21018 43.8,4.92165 z m 294.74997,156.5504 c -41.04877,-39.14325 -80.99287,-66.22613 -124.64097,-84.50903 -12.1077,-5.07153 -29.2577,-10.96923 -40.1591,-13.81026 -0.8381,-0.21843 -1.2482,-0.474 -1.1541,-0.71925 0.08,-0.20925 1.9176,-2.50755 4.0829,-5.10738 17.5301,-21.04812 32.3713,-43.50147 42.0188,-63.57051 13.6388,-28.37169 21.156,-56.6304 25.6189,-96.30672 0.4053,-3.60342 0.8101,-6.62482 0.8995,-6.71422 0.4191,-0.41916 9.3585,3.86205 13.3841,6.40988 14.9252,9.4463 29.1519,25.15757 42.2022,46.60601 20.0779,32.99856 35.98476,79.46913 43.1298,126 1.70244,11.08695 3.23124,25.28208 3.651,33.9 0.10848,2.2275 0.34794,4.23951 0.53211,4.47111 0.50904,0.64014 0.47031,32.56343 -0.0401,33.07388 -0.2094,0.2094 -0.37575,1.11024 -0.37671,2.04 -0.004,4.1142 -2.13219,23.59401 -2.62641,24.04266 -0.12204,0.11076 -3.05688,-2.502 -6.52188,-5.80617 z"
     id="path6133" />
  <path
     style="fill:#5d5d5d;stroke-width:0.30000001"
     d="m 69.75222,888.40326 c -1.3942,-2.37556 -7.4203,-14.59912 -9.8722,-20.02504 -28.5436,-63.16614 -48.5232,-143.808 -56.0798,-226.35 -2.3019,-25.14414 -3.3785,-46.87929 -3.6629,-73.95 -0.8361,-79.58985 8.7373,-162.00647 28.5402,-245.69999 5.2587,-22.22475 9.6543,-38.56662 13.355,-49.65 26.4964,-79.35623 56.0447,-136.1735 92.6455,-178.144128 5.1705,-5.92899 17.8015,-18.63003 23.3036,-23.432556 16.3334,-14.25694 31.9866,-24.86489 50.7,-34.35856 25.4175,-12.89483 52.7435,-21.86761 94.5239,-31.03793 13.457,-2.95366 19.7684,-3.88585 34.0261,-5.02565 8.0333,-0.64221 31.6378,-0.73759 39.45,-0.15941 36.5749,2.70695 67.0638,9.47577 98.25,21.81242 55.9322,22.12576 98.0907,58.380536 120.9211,103.987974 11.0935,22.16105 17.0673,44.11666 19.5379,71.80784 0.5867,6.57467 0.4913,27.68332 -0.1592,35.25 -1.7049,19.83211 -6.3403,44.47181 -10.6988,56.87023 -15.4891,44.06123 -46.8142,87.04604 -91.0236,124.90424 -15.8687,13.58892 -34.6331,27.30243 -50.4997,36.90638 -2.5148,1.52217 -4.635,2.86908 -4.7116,2.9931 -0.077,0.12402 2.2508,2.32083 5.1722,4.88175 31.8214,27.89481 65.9252,68.39247 92.9229,110.34429 49.2998,76.60713 79.7957,162.25806 89.5106,251.4 1.1241,10.31391 1.9855,20.45691 2.5607,30.15 0.584,9.84288 1.1368,27.74214 1.0145,32.85 l -0.097,4.05004 -98.6846,0.075 c -54.2765,0.041 -98.7939,-0.034 -98.9276,-0.1677 -0.1336,-0.1336 -0.5781,-4.48756 -0.9877,-9.6754 -11.5245,-145.97149 -38.182,-241.19299 -78.6684,-281.00581 -12.0348,-11.83446 -23.0237,-17.4591 -44.6317,-22.84458 -19.8364,-4.94388 -39.4452,-6.16464 -56.1,-3.49254 -26.4992,4.25154 -47.1382,17.87229 -59.1935,39.06489 -5.683,9.99024 -9.7297,22.78431 -11.0158,34.82718 -1.6283,15.24801 -1.1878,35.30943 1.2335,56.16852 6.0377,52.01343 25.9407,120.13524 54.2338,185.62504 l 1.0692,2.475 h -93.5601 -93.5601 z m 369.1794,-547.60395 c 15.9199,-1.51434 30.0933,-8.86803 37.1425,-19.27095 9.1361,-13.48269 14.1753,-27.76016 16.324,-46.25013 0.5169,-4.44799 0.5109,-21.9309 -0.01,-26.7 -2.9791,-27.32158 -11.8218,-52.59261 -25.7187,-73.5 -7.4345,-11.18496 -15.1872,-19.3503 -23.8388,-25.10767 -3.9612,-2.63606 -11.9081,-6.60624 -16.9118,-8.44892 -28.1618,-10.37114 -63.5299,-10.05094 -95.2882,0.86267 -18.01,6.18906 -34.406,15.55089 -48.6445,27.77525 -5.0039,4.29601 -12.4997,11.85321 -14.818,14.93918 -10.9048,14.51623 -10.9127,33.70622 -0.023,54.77949 4.24,8.20464 10.266,16.98714 17.2907,25.2 6.6009,7.71728 19.2883,19.81675 28.4966,27.17608 25.0834,20.04686 55.0288,35.93918 82.1979,43.62335 16.4883,4.66332 30.2543,6.21018 43.8,4.92165 z"
     id="path6131" />
  <path
     style="fill:#2e2e2e;stroke-width:0.30000001"
     d="m 70.49412,889.67826 c -0.021,-0.083 -0.058,-0.2513 -0.083,-0.375 -0.025,-0.1238 -1.0863,-2.1938 -2.3583,-4.60003 -6.4659,-12.23199 -14.8425,-31.44507 -21.4394,-49.17501 -25.26,-67.88901 -40.77,-146.42712 -45.0856,-228.3 -1.8671,-35.42283 -1.8669,-60.46062 0,-96.45 3.4297,-66.07937 13.4081,-132.06572 30.3044,-200.39999 4.6494,-18.80389 7.5701,-29.16441 11.5229,-40.87579 26.2101,-77.65544 55.4209,-133.4445 91.5367,-174.824208 5.2822,-6.05209 17.5474,-18.38669 23.2389,-23.370376 35.4651,-31.05491 74.112,-49.0721 135.45,-63.14681 17.5944,-4.03726 23.3884,-5.13001 32.7,-6.16727 21.4765,-2.39239 38.2184,-2.47534 61.05,-0.3025 51.4487,4.89629 100.7797,21.91063 139.35,48.06205 39.1887,26.570736 66.1065,61.221994 79.4418,102.265374 5.1514,15.85509 8.0161,31.33246 9.2376,49.90953 0.4499,6.84295 0.1845,25.66927 -0.4611,32.7 -1.9515,21.25325 -6.5267,44.42399 -11.4508,57.99081 -18.3281,50.49786 -58.2514,100.14951 -113.2175,140.80611 -9.8199,7.26342 -20.26,14.29394 -27.9962,18.85307 -2.2399,1.32 -4.1405,2.56275 -4.2236,2.76165 -0.083,0.1989 1.1585,1.48089 2.7593,2.84886 18.599,15.89445 40.4205,38.93031 59.9059,63.23949 33.3132,41.56005 60.8274,87.40167 81.7811,136.25571 29.7459,69.35376 45.4226,143.11062 46.679,219.61929 l 0.1909,11.62504 h -98.7346 -98.7347 l -0.1527,-0.975 c -0.084,-0.5363 -0.301,-3.06754 -0.4821,-5.62504 -2.7086,-38.25237 -8.2049,-84.09489 -14.1177,-117.75 -17.559,-99.94356 -45.6411,-160.49148 -83.6746,-180.41109 -11.14,-5.83443 -32.2269,-11.36292 -50.7,-13.29231 -4.8936,-0.51111 -20.6582,-0.51579 -25.05,-0.008 -22.4271,2.59596 -39.9163,10.3914 -53.2679,23.74299 -10.2121,10.21203 -17.2718,23.05152 -21.124,38.41785 -2.0295,8.09565 -2.6764,13.3134 -3.1712,25.57905 -1.9391,48.06015 12.6381,116.00139 41.1133,191.62095 5.1213,13.60023 14.4141,36.32742 15.9158,38.925 l 0.5637,0.975 h -93.5899 c -51.4744,0 -93.6067,-0.067 -93.6273,-0.15 z m 369.1696,-548.70372 c 12.0373,-1.40808 21.9308,-5.38959 29.9157,-12.03924 3.1778,-2.64636 4.999,-4.71609 7.5798,-8.61408 13.4688,-20.3432 18.6362,-46.94792 14.8668,-76.54299 -4.211,-33.062 -19.4327,-66.66481 -38.746,-85.53414 -3.914,-3.82405 -6.4314,-5.86447 -10.5961,-8.58834 -11.9545,-7.81878 -26.8821,-12.76057 -45.6023,-15.09661 -6.0308,-0.75256 -21.6697,-0.92401 -28.65,-0.31409 -34.9147,3.05078 -66.5688,16.85797 -90.9547,39.67349 -9.8463,9.21218 -13.9743,14.86036 -16.599,22.71165 -5.1492,15.40305 -0.9669,33.90886 12.1377,53.70756 5.5992,8.4594 11.3097,15.36834 19.9542,24.14204 11.4469,11.61793 22.8655,21.01784 37.2118,30.63317 30.0386,20.13282 61.7563,32.87073 89.25,35.8431 5.2461,0.56715 15.4619,0.57648 20.2322,0.0186 z"
     id="path6129" />
  <path
     style="fill:#ffffff;stroke-width:0.30000001;fill-opacity:1"
     d="m 70.53162,889.44316 c 0,-0.2118 -1.7965,-3.95804 -3.9921,-8.32502 -5.88,-11.69505 -11.225,-23.8062 -16.5454,-37.48992 -24.1531,-62.1204 -40.0305,-133.69323 -46.3526,-208.95 -1.3327,-15.86445 -2.6251,-39.13704 -2.7571,-49.64577 -0.032,-2.52396 -0.1065,-3.26268 -0.2283,-2.25423 -0.1,0.825 -0.2732,-4.06875 -0.3854,-10.875 -0.2119,-12.84363 0.061,-38.14032 0.3854,-35.775 0.1158,0.84339 0.2026,-0.11352 0.2314,-2.55 0.1063,-9.01272 1.1603,-29.57997 2.3137,-45.15 4.7738,-64.44119 16.1601,-130.91717 33.7604,-197.09999 2.9282,-11.01139 7.7043,-25.58163 14.3083,-43.65 33.1182,-90.61049 72.1794,-150.929648 121.9062,-188.249874 29.1085,-21.8461 61.4557,-36.30266 106.6379,-47.65832 29.187,-7.3356 43.9262,-9.92977 61.0384,-10.74305 2.546,-0.121 4.2242,-0.30039 3.7292,-0.39864 -0.495,-0.0983 2.2217,-0.26847 6.0372,-0.37827 7.3228,-0.21071 21.787,0.0563 20.5128,0.37861 -0.4125,0.10435 1.41,0.28816 4.05,0.40848 17.2534,0.7863 39.1851,4.03937 57.985,8.60078 66.2766,16.08065 120.344,51.01478 151.1175,97.640284 18.3415,27.7897 28.504,58.77866 30.7768,93.849 0.5179,7.99095 0.1863,27.76298 -0.5969,35.601 -1.5109,15.11868 -3.6136,27.38825 -7.2235,42.15 -7.3659,30.12108 -27.7931,66.27006 -55.1806,97.65 -12.0312,13.78506 -28.0638,29.36658 -43.0783,41.86617 -14.7379,12.26925 -32.4627,25.03227 -46.3316,33.36164 -2.7124,1.62903 -4.9815,3.1113 -5.0424,3.29397 -0.061,0.18267 0.3359,0.72768 0.8817,1.21113 0.5457,0.48345 3.1523,2.77386 5.7923,5.0898 12.3586,10.84152 28.3953,27.1893 41.6345,42.44217 39.9234,45.99558 72.9785,98.88399 96.8963,155.03511 29.1548,68.44569 44.9113,142.75866 46.0268,217.07697 l 0.185,12.32697 -2.5213,0.1962 c -3.2916,0.2562 -115.0014,0.2563 -159.7963,10e-5 l -34.875,-0.1994 v -1.1058 c 0,-0.60815 -0.341,-5.34458 -0.7576,-10.5254 -10.0458,-124.90644 -31.2331,-212.39724 -62.8906,-259.6995 -4.9143,-7.34289 -9.4771,-12.93573 -15.2346,-18.67368 -9.886,-9.85257 -18.5568,-15.23601 -31.3672,-19.47492 -30.3149,-10.03098 -58.9816,-11.68797 -82.6204,-4.77558 -10.3541,3.02772 -19.8468,7.83696 -28.2296,14.30193 -3.139,2.42082 -9.4433,8.67432 -11.9987,11.90211 -8.2558,10.42779 -14.1504,23.64264 -16.9496,37.99848 -1.4807,7.59423 -1.778,12.29313 -1.7904,28.30152 -0.012,14.89752 0.1226,17.87169 1.3561,30.07317 4.4347,43.86903 19.0922,99.9588 41.1389,157.42683 5.8111,15.14727 14.1829,35.25004 14.68,35.25004 0.145,0 0.2637,0.135 0.2637,0.3 0,0.1993 -31.35,0.3 -93.45,0.3 -75.8636,0 -93.45,-0.072 -93.45,-0.3851 z m 367.5,-548.0356 c 13.7052,-1.26579 25.2543,-6.10056 33.7268,-14.11881 3.6976,-3.49944 7.1841,-8.64828 10.9247,-16.13364 5.0761,-10.15776 8.188,-20.56403 9.7865,-32.72688 3.6219,-27.5591 -2.4939,-60.23228 -16.5239,-88.27671 -9.242,-18.4738 -20.6138,-32.48068 -32.9641,-40.60258 -20.112,-13.22617 -50.2676,-18.7142 -81.45,-14.8231 -27.7895,3.46772 -54.4063,14.57666 -75.6752,31.58425 -8.1734,6.53582 -17.092,15.41413 -20.2693,20.17764 -4.8871,7.32706 -7.0681,14.76798 -7.0316,23.9905 0.028,7.06757 1.122,12.60792 4.0286,20.4 13.6127,36.49346 62.0397,78.55977 114.3814,99.35784 14.7049,5.84304 31.2897,10.02432 44.2661,11.16018 4.216,0.36903 12.8636,0.37485 16.8,0.0114 z"
     id="path6127" />
  <g
     transform="translate(105.60108,18.879933)"
     style="opacity:1"
     id="layer1" />
  <g
     transform="translate(105.60108,18.879933)"
     id="layer2" />
</svg>
